<svg width="422" height="320" viewBox="0 0 422 320" fill="none" xmlns="http://www.w3.org/2000/svg">
<path d="M417.867 242.868H373.694C376.927 229.683 378.633 215.93 378.633 201.75C378.633 173.604 371.881 147.022 359.869 123.531H391.214C393.026 123.531 394.483 122.074 394.483 120.261C394.483 118.449 393.026 116.992 391.214 116.992H356.351C326.783 64.7864 270.74 29.5681 206.451 29.5681C163.699 29.5681 124.571 45.1694 94.4704 70.97H41.4474C39.635 70.97 38.1779 72.4271 38.1779 74.2395C38.1779 76.052 39.635 77.5091 41.4474 77.5091H87.2561C83.5957 81.0273 80.0774 84.6878 76.7724 88.5259H4.16793C2.35548 88.5259 0.898438 89.9829 0.898438 91.7954C0.898438 93.6078 2.35548 95.0649 4.16793 95.0649H71.335C48.1286 124.419 34.2687 161.486 34.2687 201.786C34.2687 224.353 38.6044 245.889 46.4938 265.648H37.8936C36.0812 265.648 34.6241 267.105 34.6241 268.917C34.6241 270.73 36.0812 272.187 37.8936 272.187H49.2658C50.4386 274.817 51.718 277.447 53.0329 280.005H14.4385C12.626 280.005 11.1689 281.462 11.1689 283.275C11.1689 285.087 12.626 286.544 14.4385 286.544H56.5511C60.5669 293.652 65.0803 300.44 70.0556 306.872H342.846C352.122 294.86 359.834 281.569 365.697 267.354H397.717C399.53 267.354 400.987 265.897 400.987 264.084C400.987 262.272 399.53 260.815 397.717 260.815H368.221C369.571 257.083 370.815 253.281 371.917 249.443H417.832C419.644 249.443 421.101 247.986 421.101 246.173C421.101 244.325 419.644 242.868 417.867 242.868Z" fill="#E8F0FD"/>
<path d="M345.69 0.000244141C338.866 0.000244141 333.322 5.54419 333.322 12.3675V126.587C333.322 127.085 333.287 127.547 333.251 128.044C332.505 136.325 325.575 142.828 317.082 142.828H236.517V15.3527C236.517 6.89465 243.375 0.0357736 251.833 0.0357736H345.69V0.000244141Z" fill="url(#paint0_linear_201_180)"/>
<path d="M319.001 15.1749H248.244C247.569 15.1749 247.036 14.6418 247.036 13.9666V13.8955C247.036 13.2203 247.569 12.6873 248.244 12.6873H319.001C319.676 12.6873 320.209 13.2203 320.209 13.8955V13.9666C320.209 14.6418 319.676 15.1749 319.001 15.1749Z" fill="#E8F0FD"/>
<path d="M319.001 28.1464H248.244C247.569 28.1464 247.036 27.6133 247.036 26.9381V26.867C247.036 26.1918 247.569 25.6587 248.244 25.6587H319.001C319.676 25.6587 320.209 26.1918 320.209 26.867V26.9381C320.209 27.6133 319.676 28.1464 319.001 28.1464Z" fill="#E8F0FD"/>
<path d="M319.001 41.1534H248.244C247.569 41.1534 247.036 40.6204 247.036 39.9451V39.8741C247.036 39.1989 247.569 38.6658 248.244 38.6658H319.001C319.676 38.6658 320.209 39.1989 320.209 39.8741V39.9451C320.209 40.5848 319.676 41.1534 319.001 41.1534Z" fill="#E8F0FD"/>
<path d="M319.001 54.1249H248.244C247.569 54.1249 247.036 53.5918 247.036 52.9166V52.8455C247.036 52.1703 247.569 51.6372 248.244 51.6372H319.001C319.676 51.6372 320.209 52.1703 320.209 52.8455V52.9166C320.209 53.5918 319.676 54.1249 319.001 54.1249Z" fill="#E8F0FD"/>
<path d="M319.001 67.0961H248.244C247.569 67.0961 247.036 66.563 247.036 65.8878V65.8167C247.036 65.1415 247.569 64.6084 248.244 64.6084H319.001C319.676 64.6084 320.209 65.1415 320.209 65.8167V65.8878C320.209 66.563 319.676 67.0961 319.001 67.0961Z" fill="#E8F0FD"/>
<path d="M319.001 80.0675H248.244C247.569 80.0675 247.036 79.5344 247.036 78.8592V78.7881C247.036 78.1129 247.569 77.5798 248.244 77.5798H319.001C319.676 77.5798 320.209 78.1129 320.209 78.7881V78.8592C320.209 79.5344 319.676 80.0675 319.001 80.0675Z" fill="#E8F0FD"/>
<path d="M319.001 93.0389H248.244C247.569 93.0389 247.036 92.5059 247.036 91.8306V91.7596C247.036 91.0844 247.569 90.5513 248.244 90.5513H319.001C319.676 90.5513 320.209 91.0844 320.209 91.7596V91.8306C320.209 92.5059 319.676 93.0389 319.001 93.0389Z" fill="#E8F0FD"/>
<path d="M319.001 106.011H248.244C247.569 106.011 247.036 105.478 247.036 104.802V104.731C247.036 104.056 247.569 103.523 248.244 103.523H319.001C319.676 103.523 320.209 104.056 320.209 104.731V104.802C320.209 105.478 319.676 106.011 319.001 106.011Z" fill="#E8F0FD"/>
<path d="M319.001 118.982H248.244C247.569 118.982 247.036 118.449 247.036 117.774V117.702C247.036 117.027 247.569 116.494 248.244 116.494H319.001C319.676 116.494 320.209 117.027 320.209 117.702V117.774C320.209 118.449 319.676 118.982 319.001 118.982Z" fill="#E8F0FD"/>
<path d="M319.001 131.953H248.244C247.569 131.953 247.036 131.42 247.036 130.745V130.674C247.036 129.999 247.569 129.466 248.244 129.466H319.001C319.676 129.466 320.209 129.999 320.209 130.674V130.745C320.209 131.42 319.676 131.953 319.001 131.953Z" fill="#E8F0FD"/>
<path opacity="0.1" d="M333.322 28.1819L333.251 128.044C332.505 136.324 325.575 142.828 317.082 142.828H236.588L236.517 102.243C324.58 109.102 333.322 28.1819 333.322 28.1819Z" fill="#1C48A3"/>
<path d="M317.117 142.828H276.177V73.9906C276.177 67.1673 281.721 61.6233 288.544 61.6233C291.956 61.6233 295.048 63.0093 297.286 65.2482C299.525 67.4871 300.911 70.5789 300.911 73.9906V126.587C300.876 135.543 308.126 142.828 317.117 142.828Z" fill="#2B3871"/>
<path d="M288.509 61.6589C281.686 61.6589 276.142 67.2029 276.142 74.0262V304.207C276.142 308.436 274.436 312.274 271.664 315.046C268.892 317.818 265.054 319.524 260.825 319.524H141.843C134.416 319.524 128.197 314.228 126.811 307.192C126.597 306.232 126.526 305.202 126.526 304.171V76.9759C126.526 68.5178 133.385 61.6589 141.843 61.6589H288.509Z" fill="url(#paint1_linear_201_180)"/>
<path opacity="0.1" d="M276.141 121.576V304.207C276.141 304.775 276.106 305.344 276.07 305.877C275.679 309.431 274.08 312.629 271.663 315.046C268.891 317.818 265.053 319.524 260.824 319.524H229.302L200.836 316.112L126.81 307.227L126.419 307.192L126.526 243.117C251.726 250.082 276.141 121.576 276.141 121.576Z" fill="#1C48A3"/>
<path d="M260.825 319.524H107.158C98.6997 319.524 91.8408 312.665 91.8408 304.207V294.825H245.508V304.207C245.508 312.665 252.367 319.524 260.825 319.524Z" fill="#2B3871"/>
<path d="M194.298 271.263H144.544C143.549 271.263 142.768 270.481 142.768 269.486C142.768 268.491 143.549 267.709 144.544 267.709H194.298C195.293 267.709 196.075 268.491 196.075 269.486C196.075 270.481 195.293 271.263 194.298 271.263Z" fill="#E8F0FD"/>
<path d="M215.976 282.635H144.544C143.549 282.635 142.768 281.854 142.768 280.858C142.768 279.863 143.549 279.082 144.544 279.082H215.976C216.971 279.082 217.753 279.863 217.753 280.858C217.753 281.854 216.971 282.635 215.976 282.635Z" fill="#E8F0FD"/>
<path d="M288.509 61.6235H236.517V62.5831H288.509V61.6235Z" fill="#2B3871"/>
<path d="M327.387 312.7C325.255 314.833 321.843 314.833 319.711 312.7L286.732 279.721L282.538 275.528C285.594 273.502 288.189 270.908 290.214 267.851L327.387 305.024C329.484 307.156 329.484 310.604 327.387 312.7Z" fill="black"/>
<path d="M291.884 269.522L300.484 278.122C298.459 281.178 295.865 283.773 292.808 285.798L288.402 281.391L284.208 277.198C287.264 275.208 289.859 272.578 291.884 269.522Z" fill="black"/>
<path d="M300.449 251.646C300.378 250.26 300.236 248.874 300.023 247.559C298.743 239.954 294.798 233.202 289.219 228.333C283.462 223.322 275.963 220.301 267.718 220.301C249.629 220.301 234.952 234.979 234.952 253.067C234.952 254.311 235.023 255.555 235.165 256.763C235.592 260.566 236.694 264.191 238.293 267.496C240.638 272.223 244.05 276.345 248.279 279.437C248.954 279.934 249.665 280.432 250.411 280.858C255.422 283.986 261.357 285.798 267.718 285.798C274.79 285.798 281.365 283.559 286.731 279.721C289.681 277.589 292.311 274.994 294.407 272.045C296.54 269.06 298.175 265.719 299.205 262.094C300.022 259.216 300.485 256.159 300.485 253.032C300.485 252.57 300.449 252.108 300.449 251.646ZM267.718 279.97C261.819 279.97 256.382 278.086 251.939 274.852C247.639 271.725 244.299 267.389 242.415 262.307C241.349 259.429 240.78 256.301 240.78 253.032C240.78 251.788 240.852 250.615 241.029 249.407C242.38 239.421 249.167 231.176 258.336 227.764C261.25 226.698 264.413 226.094 267.718 226.094C268.927 226.094 270.064 226.165 271.237 226.307C276.709 227.018 281.649 229.364 285.559 232.846C291.138 237.786 294.656 245 294.656 253.032C294.656 253.458 294.656 253.849 294.621 254.24C294.55 256.23 294.23 258.149 293.732 259.997C292.986 262.84 291.778 265.47 290.214 267.851C288.188 270.908 285.594 273.502 282.538 275.528C281.791 276.025 281.01 276.487 280.228 276.914C278.522 277.802 276.71 278.513 274.826 279.046C272.552 279.65 270.171 279.97 267.718 279.97Z" fill="black"/>
<path d="M247.319 256.017C245.933 256.017 244.796 254.88 244.796 253.494C244.796 247.239 247.212 241.375 251.619 236.969C256.026 232.562 261.89 230.145 268.144 230.145C269.53 230.145 270.668 231.282 270.668 232.668C270.668 234.054 269.53 235.192 268.144 235.192C263.24 235.192 258.656 237.111 255.173 240.558C251.726 244.005 249.807 248.625 249.807 253.529C249.842 254.88 248.705 256.017 247.319 256.017Z" fill="#E8F0FD"/>
<path d="M186.375 194.317V199.192H161.789L161.531 195.442L175.992 172.637H180.938L175.594 181.707L167.836 194.317H186.375ZM182.32 172.637V206.762H176.109V172.637H182.32ZM212.695 186.77V192.512C212.695 195.137 212.43 197.379 211.898 199.239C211.367 201.098 210.602 202.621 209.602 203.809C208.602 204.981 207.406 205.848 206.016 206.41C204.625 206.957 203.078 207.231 201.375 207.231C200.016 207.231 198.75 207.059 197.578 206.715C196.406 206.356 195.352 205.809 194.414 205.074C193.492 204.324 192.695 203.371 192.023 202.215C191.367 201.059 190.859 199.676 190.5 198.067C190.156 196.457 189.984 194.606 189.984 192.512V186.77C189.984 184.145 190.25 181.91 190.781 180.067C191.328 178.223 192.102 176.715 193.102 175.543C194.102 174.371 195.297 173.52 196.688 172.989C198.078 172.442 199.625 172.168 201.328 172.168C202.703 172.168 203.969 172.34 205.125 172.684C206.297 173.028 207.344 173.567 208.266 174.301C209.203 175.02 210 175.957 210.656 177.114C211.312 178.254 211.812 179.629 212.156 181.239C212.516 182.832 212.695 184.676 212.695 186.77ZM206.508 193.356V185.903C206.508 184.59 206.43 183.449 206.273 182.481C206.133 181.496 205.922 180.66 205.641 179.973C205.359 179.285 205.008 178.731 204.586 178.309C204.164 177.871 203.68 177.551 203.133 177.348C202.586 177.145 201.984 177.043 201.328 177.043C200.516 177.043 199.789 177.207 199.148 177.535C198.508 177.848 197.969 178.348 197.531 179.035C197.094 179.723 196.758 180.637 196.523 181.778C196.305 182.903 196.195 184.278 196.195 185.903V193.356C196.195 194.668 196.266 195.817 196.406 196.801C196.562 197.785 196.781 198.629 197.062 199.332C197.359 200.035 197.711 200.614 198.117 201.067C198.539 201.504 199.023 201.832 199.57 202.051C200.117 202.254 200.719 202.356 201.375 202.356C202.203 202.356 202.93 202.192 203.555 201.864C204.195 201.535 204.734 201.02 205.172 200.317C205.609 199.598 205.938 198.668 206.156 197.528C206.391 196.371 206.508 194.981 206.508 193.356ZM241.219 194.317V199.192H216.633L216.375 195.442L230.836 172.637H235.781L230.438 181.707L222.68 194.317H241.219ZM237.164 172.637V206.762H230.953V172.637H237.164Z" fill="white"/>
<defs>
<linearGradient id="paint0_linear_201_180" x1="291.105" y1="27.9259" x2="291.105" y2="137.095" gradientUnits="userSpaceOnUse">
<stop stop-color="#1C48A3"/>
<stop offset="1" stop-color="#37498C"/>
</linearGradient>
<linearGradient id="paint1_linear_201_180" x1="207.519" y1="77.9283" x2="207.519" y2="303.937" gradientUnits="userSpaceOnUse">
<stop stop-color="#1C48A3"/>
<stop offset="1" stop-color="#37498C"/>
</linearGradient>
</defs>
</svg>
