<svg width="354" height="270" viewBox="0 0 354 270" fill="none" xmlns="http://www.w3.org/2000/svg">
<path d="M350.708 204.659H313.604C316.313 193.596 317.752 182.034 317.752 170.135C317.752 146.487 312.073 124.164 302.006 104.455H328.32C329.833 104.455 331.059 103.228 331.059 101.715C331.059 100.202 329.833 98.9755 328.32 98.9755H299.055C274.219 55.1348 227.146 25.5446 173.161 25.5446C137.253 25.5446 104.407 38.6341 79.1229 60.3038H34.5988C33.0857 60.3038 31.8591 61.5304 31.8591 63.0435C31.8591 64.5566 33.0857 65.7831 34.5988 65.7831H73.0795C70.0056 68.7317 67.063 71.8146 64.2606 75.0198H3.28656C1.77348 75.0198 0.546875 76.2464 0.546875 77.7595C0.546875 79.2726 1.77348 80.4992 3.28656 80.4992H59.7035C40.2124 105.138 28.5733 136.277 28.5733 170.132C28.5733 189.08 32.2202 207.175 38.8456 223.756H31.6263C30.1132 223.756 28.8866 224.982 28.8866 226.496C28.8866 228.009 30.1132 229.235 31.6263 229.235H41.1674C42.1642 231.459 43.2147 233.649 44.3189 235.81H11.8995C10.3864 235.81 9.15982 237.036 9.15982 238.55C9.15982 240.063 10.3864 241.289 11.8995 241.289H47.2705C50.6488 247.255 54.439 252.955 58.6052 258.354H287.726C295.509 248.264 301.988 237.114 306.913 225.162H333.805C335.318 225.162 336.545 223.935 336.545 222.422C336.545 220.909 335.318 219.682 333.805 219.682H309.04C310.183 216.549 311.222 213.364 312.15 210.132H350.714C352.228 210.132 353.454 208.906 353.454 207.392C353.448 205.885 352.222 204.659 350.708 204.659Z" fill="#F2F2F2"/>
<path d="M290.106 0.729492C284.373 0.729492 279.723 5.3762 279.723 11.1092V107.022C279.723 107.43 279.706 107.836 279.67 108.236C279.055 115.193 273.215 120.648 266.097 120.648H198.429V13.6012C198.429 6.48937 204.192 0.729492 211.3 0.729492H290.106Z" fill="#335AAC"/>
<path d="M267.69 13.4698H208.286C207.731 13.4698 207.277 13.0192 207.277 12.4611V12.3865C207.277 11.8314 207.728 11.3777 208.286 11.3777H267.69C268.245 11.3777 268.699 11.8284 268.699 12.3865V12.4611C268.699 13.0192 268.248 13.4698 267.69 13.4698Z" fill="white"/>
<path d="M267.69 24.3689H208.286C207.731 24.3689 207.277 23.9183 207.277 23.3602V23.2856C207.277 22.7305 207.728 22.2769 208.286 22.2769H267.69C268.245 22.2769 268.699 22.7275 268.699 23.2856V23.3602C268.699 23.9153 268.248 24.3689 267.69 24.3689Z" fill="white"/>
<path d="M267.69 35.2649H208.286C207.731 35.2649 207.277 34.8142 207.277 34.2561V34.1815C207.277 33.6264 207.728 33.1728 208.286 33.1728H267.69C268.245 33.1728 268.699 33.6234 268.699 34.1815V34.2561C268.699 34.8112 268.248 35.2649 267.69 35.2649Z" fill="white"/>
<path d="M267.69 46.1609H208.286C207.731 46.1609 207.277 45.7103 207.277 45.1522V45.0776C207.277 44.5225 207.728 44.0688 208.286 44.0688H267.69C268.245 44.0688 268.699 44.5195 268.699 45.0776V45.1522C268.699 45.7073 268.248 46.1609 267.69 46.1609Z" fill="white"/>
<path d="M267.69 57.057H208.286C207.731 57.057 207.277 56.6064 207.277 56.0483V55.9737C207.277 55.4186 207.728 54.9649 208.286 54.9649H267.69C268.245 54.9649 268.699 55.4156 268.699 55.9737V56.0483C268.699 56.6064 268.248 57.057 267.69 57.057Z" fill="white"/>
<path d="M267.69 67.9529H208.286C207.731 67.9529 207.277 67.5023 207.277 66.9442V66.8696C207.277 66.3145 207.728 65.8608 208.286 65.8608H267.69C268.245 65.8608 268.699 66.3115 268.699 66.8696V66.9442C268.699 67.5023 268.248 67.9529 267.69 67.9529Z" fill="white"/>
<path d="M267.69 78.849H208.286C207.731 78.849 207.277 78.3983 207.277 77.8403V77.7657C207.277 77.2106 207.728 76.7569 208.286 76.7569H267.69C268.245 76.7569 268.699 77.2076 268.699 77.7657V77.8403C268.699 78.3983 268.248 78.849 267.69 78.849Z" fill="white"/>
<path d="M267.69 89.7449H208.286C207.731 89.7449 207.277 89.2943 207.277 88.7362V88.6616C207.277 88.1065 207.728 87.6529 208.286 87.6529H267.69C268.245 87.6529 268.699 88.1035 268.699 88.6616V88.7362C268.699 89.2943 268.248 89.7449 267.69 89.7449Z" fill="white"/>
<path d="M267.69 100.641H208.286C207.731 100.641 207.277 100.19 207.277 99.6323V99.5576C207.277 99.0025 207.728 98.5489 208.286 98.5489H267.69C268.245 98.5489 268.699 98.9996 268.699 99.5576V99.6323C268.699 100.19 268.248 100.641 267.69 100.641Z" fill="white"/>
<path d="M267.69 111.537H208.286C207.731 111.537 207.277 111.086 207.277 110.528V110.454C207.277 109.899 207.728 109.445 208.286 109.445H267.69C268.245 109.445 268.699 109.896 268.699 110.454V110.528C268.699 111.086 268.248 111.537 267.69 111.537Z" fill="white"/>
<path opacity="0.1" d="M279.723 24.3689L279.67 108.236C279.055 115.193 273.215 120.648 266.097 120.648H198.485L198.429 86.5636C272.385 92.3413 279.723 24.3689 279.723 24.3689Z" fill="#2A57B5"/>
<path d="M266.096 120.648H231.707V62.8646C231.707 57.1316 236.357 52.4819 242.09 52.4819C244.958 52.4819 247.551 53.6428 249.431 55.523C251.311 57.4032 252.472 59.9966 252.472 62.8646V107.022C252.472 114.545 258.573 120.648 266.096 120.648Z" fill="#05266B"/>
<path d="M242.09 52.4819C236.357 52.4819 231.707 57.1316 231.707 62.8646V256.173C231.707 259.727 230.266 262.944 227.938 265.275C225.607 267.603 222.39 269.044 218.836 269.044H118.933C112.69 269.044 107.482 264.6 106.309 258.7C106.145 257.883 106.059 257.038 106.059 256.173V65.3536C106.059 58.2448 111.821 52.4819 118.933 52.4819H242.09Z" fill="#2A57B5"/>
<path opacity="0.1" d="M231.707 102.799V256.173C231.707 256.644 231.68 257.113 231.633 257.572C231.307 260.569 229.955 263.254 227.938 265.275C225.607 267.603 222.39 269.044 218.835 269.044H192.37L168.474 266.173L106.309 258.7L105.969 258.659L106.058 204.847C211.201 210.72 231.707 102.799 231.707 102.799Z" fill="#2A57B5"/>
<path d="M218.836 269.044H89.7994C82.6906 269.044 76.9277 263.281 76.9277 256.172V248.279H205.964V256.172C205.964 263.281 211.727 269.044 218.836 269.044Z" fill="#05266B"/>
<path d="M162.971 228.516H121.189C120.366 228.516 119.697 227.847 119.697 227.024C119.697 226.2 120.366 225.532 121.189 225.532H162.971C163.795 225.532 164.463 226.2 164.463 227.024C164.463 227.847 163.795 228.516 162.971 228.516Z" fill="white"/>
<path d="M181.176 238.066H121.189C120.366 238.066 119.697 237.397 119.697 236.574C119.697 235.75 120.366 235.082 121.189 235.082H181.176C181.999 235.082 182.668 235.75 182.668 236.574C182.668 237.397 181.999 238.066 181.176 238.066Z" fill="white"/>
<path d="M242.09 52.4609H198.429V53.2518H242.09V52.4609Z" fill="#05266B"/>
<path d="M274.727 263.32C272.946 265.102 270.057 265.102 268.278 263.32L240.586 235.628L237.067 232.109C239.628 230.417 241.827 228.221 243.517 225.66L274.727 256.871C276.506 258.652 276.506 261.541 274.727 263.32Z" fill="#9C9C9C"/>
<path d="M244.919 227.063L252.135 234.279C250.446 236.84 248.25 239.036 245.686 240.728L241.988 237.031L238.47 233.512C241.03 231.823 243.227 229.623 244.919 227.063Z" fill="#5E5E5E"/>
<path d="M252.109 212.033C252.061 210.867 251.939 209.718 251.745 208.589C250.661 202.188 247.363 196.538 242.669 192.456C237.837 188.254 231.528 185.708 224.622 185.708C209.429 185.708 197.115 198.025 197.115 213.218C197.115 214.269 197.175 215.307 197.288 216.328C197.649 219.53 198.557 222.562 199.921 225.335C201.878 229.319 204.77 232.757 208.313 235.368C208.889 235.792 209.483 236.195 210.091 236.577C214.308 239.206 219.289 240.725 224.625 240.725C230.576 240.725 236.082 238.836 240.583 235.625C243.075 233.849 245.256 231.668 247.032 229.176C248.817 226.672 250.196 223.858 251.064 220.828C251.759 218.411 252.13 215.856 252.13 213.215C252.133 212.824 252.127 212.427 252.109 212.033ZM224.625 235.837C219.677 235.837 215.099 234.246 211.378 231.551C207.764 228.934 204.952 225.275 203.388 221.013C202.496 218.584 202.013 215.961 202.013 213.224C202.013 212.195 202.081 211.18 202.216 210.186C203.341 201.8 209.062 194.87 216.764 192.014C219.215 191.107 221.862 190.608 224.628 190.608C225.628 190.608 226.613 190.674 227.58 190.799C232.164 191.396 236.318 193.366 239.613 196.285C244.293 200.427 247.244 206.479 247.244 213.224C247.244 213.567 247.235 213.911 247.22 214.251C247.146 215.91 246.892 217.525 246.48 219.074C245.847 221.446 244.839 223.667 243.52 225.663C241.827 228.224 239.631 230.423 237.07 232.112C236.441 232.527 235.79 232.909 235.121 233.261C233.689 234.013 232.167 234.613 230.573 235.046C228.675 235.562 226.682 235.837 224.625 235.837Z" fill="#B8B8B8"/>
<path d="M207.502 215.707C206.335 215.707 205.389 214.761 205.389 213.594C205.389 208.357 207.43 203.43 211.134 199.726C214.837 196.022 219.762 193.981 225.002 193.981C226.169 193.981 227.115 194.927 227.115 196.094C227.115 197.261 226.169 198.207 225.002 198.207C220.893 198.207 217.028 199.807 214.121 202.713C211.214 205.62 209.615 209.485 209.615 213.594C209.612 214.761 208.669 215.707 207.502 215.707Z" fill="#F2F2F2"/>
<path d="M153.789 148.013V153.31H129.203L128.875 149.208L143.102 126.638H148.469L142.656 136.365L135.578 148.013H153.789ZM149.922 126.638V160.763H143.172V126.638H149.922ZM180.414 140.701V146.607C180.414 149.169 180.141 151.38 179.594 153.24C179.047 155.083 178.258 156.599 177.227 157.787C176.211 158.958 175 159.826 173.594 160.388C172.188 160.951 170.625 161.232 168.906 161.232C167.531 161.232 166.25 161.06 165.063 160.716C163.875 160.357 162.805 159.802 161.852 159.052C160.914 158.302 160.102 157.357 159.414 156.216C158.742 155.06 158.227 153.685 157.867 152.091C157.508 150.498 157.328 148.669 157.328 146.607V140.701C157.328 138.138 157.602 135.943 158.148 134.115C158.711 132.271 159.5 130.763 160.516 129.591C161.547 128.419 162.766 127.56 164.172 127.013C165.578 126.451 167.141 126.169 168.859 126.169C170.234 126.169 171.508 126.349 172.68 126.708C173.867 127.052 174.938 127.591 175.891 128.326C176.844 129.06 177.656 130.005 178.328 131.162C179 132.302 179.516 133.669 179.875 135.263C180.234 136.841 180.414 138.654 180.414 140.701ZM173.641 147.498V139.787C173.641 138.552 173.57 137.474 173.43 136.552C173.305 135.63 173.109 134.849 172.844 134.208C172.578 133.552 172.25 133.021 171.859 132.615C171.469 132.208 171.023 131.912 170.523 131.724C170.023 131.537 169.469 131.443 168.859 131.443C168.094 131.443 167.414 131.591 166.82 131.888C166.242 132.185 165.75 132.662 165.344 133.318C164.938 133.958 164.625 134.818 164.406 135.896C164.203 136.958 164.102 138.255 164.102 139.787V147.498C164.102 148.732 164.164 149.818 164.289 150.755C164.43 151.693 164.633 152.498 164.898 153.169C165.18 153.826 165.508 154.365 165.883 154.787C166.273 155.193 166.719 155.49 167.219 155.677C167.734 155.865 168.297 155.958 168.906 155.958C169.656 155.958 170.32 155.81 170.898 155.513C171.492 155.201 171.992 154.716 172.398 154.06C172.82 153.388 173.133 152.513 173.336 151.435C173.539 150.357 173.641 149.044 173.641 147.498ZM208.914 148.013V153.31H184.328L184 149.208L198.227 126.638H203.594L197.781 136.365L190.703 148.013H208.914ZM205.047 126.638V160.763H198.297V126.638H205.047Z" fill="white"/>
</svg>
