<svg width="22" height="23" viewBox="0 0 22 23" fill="none" xmlns="http://www.w3.org/2000/svg">
<path d="M14.2083 13.1407H13.4842L13.2275 12.8932C14.1258 11.8482 14.6667 10.4915 14.6667 9.01571C14.6667 5.72487 11.9992 3.05737 8.70833 3.05737C5.4175 3.05737 2.75 5.72487 2.75 9.01571C2.75 12.3065 5.4175 14.974 8.70833 14.974C10.1842 14.974 11.5408 14.4332 12.5858 13.5349L12.8333 13.7915V14.5157L17.4167 19.0899L18.7825 17.724L14.2083 13.1407ZM8.70833 13.1407C6.42583 13.1407 4.58333 11.2982 4.58333 9.01571C4.58333 6.73321 6.42583 4.89071 8.70833 4.89071C10.9908 4.89071 12.8333 6.73321 12.8333 9.01571C12.8333 11.2982 10.9908 13.1407 8.70833 13.1407Z" fill="#1C48A3"/>
</svg>
