<svg width="24" height="25" viewBox="0 0 24 25" fill="none" xmlns="http://www.w3.org/2000/svg">
<path fill-rule="evenodd" clip-rule="evenodd" d="M17 2.31689C17.5523 2.31689 18 2.76461 18 3.31689V4.31689H19C20.6569 4.31689 22 5.66004 22 7.31689V19.3169C22 20.9737 20.6569 22.3169 19 22.3169H5C3.34315 22.3169 2 20.9737 2 19.3169V7.31689C2 5.66004 3.34315 4.31689 5 4.31689H6V3.31689C6 2.76461 6.44772 2.31689 7 2.31689C7.55228 2.31689 8 2.76461 8 3.31689V4.31689H16V3.31689C16 2.76461 16.4477 2.31689 17 2.31689ZM20 12.3169H4V19.3169C4 19.8692 4.44772 20.3169 5 20.3169H19C19.5523 20.3169 20 19.8692 20 19.3169V12.3169ZM17 14.3169C17.5523 14.3169 18 14.7646 18 15.3169V17.3169C18 17.8692 17.5523 18.3169 17 18.3169H15C14.4477 18.3169 14 17.8692 14 17.3169V15.3169C14 14.7646 14.4477 14.3169 15 14.3169H17ZM6 6.31689H5C4.44772 6.31689 4 6.76461 4 7.31689V10.3169H20V7.31689C20 6.76461 19.5523 6.31689 19 6.31689H18V7.31689C18 7.86918 17.5523 8.31689 17 8.31689C16.4477 8.31689 16 7.86918 16 7.31689V6.31689H8V7.31689C8 7.86918 7.55228 8.31689 7 8.31689C6.44772 8.31689 6 7.86918 6 7.31689V6.31689Z" fill="#1C48A3"/>
</svg>
