<svg version="1.1" xmlns="http://www.w3.org/2000/svg" xmlns:xlink="http://www.w3.org/1999/xlink">

    <symbol viewBox="0 0 129 28" id="logo">
        <path d="M0.7 27V1.26H7V11.556H16.36V1.26H22.66V27H16.36V16.92H7V27H0.7ZM33.6316 27V6.66H25.8196V1.26H47.7436V6.66H39.9316V27H33.6316ZM50.9031 27V1.26H57.2031V13.284L56.9151 17.676H56.9871C57.7551 15.876 58.4751 14.412 59.1471 13.284L66.2751 1.26H72.6471V27H66.3471V15.012L66.6351 10.62H66.5631C65.7951 12.42 65.0751 13.884 64.4031 15.012L57.2391 27H50.9031ZM78.0438 27V1.26H88.7358C91.2318 1.26 93.2478 2.088 94.7838 3.744C96.3438 5.4 97.1238 7.524 97.1238 10.116C97.1238 12.732 96.3438 14.88 94.7838 16.56C93.2478 18.216 91.2318 19.044 88.7358 19.044H84.3438V27H78.0438ZM84.3438 13.644H87.4398C88.4958 13.644 89.2998 13.32 89.8518 12.672C90.4278 12.024 90.7158 11.172 90.7158 10.116C90.7158 9.06 90.4398 8.22 89.8878 7.596C89.3358 6.972 88.5558 6.66 87.5478 6.66H84.3438V13.644ZM98.7438 13.248C98.7438 10.2 99.8118 7.668 101.948 5.652C104.084 3.636 106.856 2.628 110.264 2.628V-2.14577e-06H116.564V2.628C119.972 2.628 122.744 3.636 124.88 5.652C127.016 7.668 128.084 10.2 128.084 13.248C128.084 16.392 127.016 19.008 124.88 21.096C122.744 23.16 119.972 24.192 116.564 24.192V27.432H110.264V24.192C106.856 24.192 104.084 23.16 101.948 21.096C99.8118 19.008 98.7438 16.392 98.7438 13.248ZM116.564 18.936C118.004 18.936 119.216 18.384 120.2 17.28C121.184 16.176 121.676 14.832 121.676 13.248C121.676 11.76 121.184 10.5 120.2 9.468C119.216 8.412 118.004 7.884 116.564 7.884V18.936ZM105.152 13.248C105.152 14.832 105.644 16.176 106.628 17.28C107.612 18.384 108.824 18.936 110.264 18.936V7.884C108.824 7.884 107.612 8.412 106.628 9.468C105.644 10.5 105.152 11.76 105.152 13.248Z" />
    </symbol>

    <symbol viewBox="0 0 30 31" id="header-user">
        <path d="M15 0.5C6.72 0.5 0 7.22 0 15.5C0 23.78 6.72 30.5 15 30.5C23.28 30.5 30 23.78 30 15.5C30 7.22 23.28 0.5 15 0.5ZM15 5C17.49 5 19.5 7.01 19.5 9.5C19.5 11.99 17.49 14 15 14C12.51 14 10.5 11.99 10.5 9.5C10.5 7.01 12.51 5 15 5ZM15 26.3C11.25 26.3 7.935 24.38 6 21.47C6.045 18.485 12 16.85 15 16.85C17.985 16.85 23.955 18.485 24 21.47C22.065 24.38 18.75 26.3 15 26.3Z" />
    </symbol>

    <symbol viewBox="0 0 40 13" id="header-burger">
        <line x1="0.730469" y1="1.33496" x2="39.27" y2="1.33496" stroke-width="2" />
        <line x1="0.730469" y1="11.665" x2="39.27" y2="11.665" stroke-width="2" />
    </symbol>

    <symbol viewBox="0 0 25 25" id="file-icon">
        <path d="M8.82422 16.0879H16.8242V18.0879H8.82422V16.0879ZM8.82422 12.0879H16.8242V14.0879H8.82422V12.0879ZM14.8242 2.08789H6.82422C5.72422 2.08789 4.82422 2.98789 4.82422 4.08789V20.0879C4.82422 21.1879 5.71422 22.0879 6.81422 22.0879H18.8242C19.9242 22.0879 20.8242 21.1879 20.8242 20.0879V8.08789L14.8242 2.08789ZM18.8242 20.0879H6.82422V4.08789H13.8242V9.08789H18.8242V20.0879Z" />
    </symbol>

    <symbol viewBox="0 0 36 41" id="file-icon-2">
        <path d="M2.55845 0.0322266H24.2964L35.8185 11.5096V38.4093C35.8185 39.8228 34.6724 40.9678 33.2601 40.9678H2.55845C1.14613 40.9678 0 39.8228 0 38.4093V2.59067C0 1.17717 1.14626 0.0322266 2.55845 0.0322266Z" />
        <path opacity="0.5" d="M35.7817 11.5451H26.8641C25.4518 11.5451 24.3057 10.399 24.3057 8.9867V0.0576172L35.7817 11.5451Z" fill="black" />
    </symbol>

    <symbol viewBox="0 0 24 25" id="footer-address">
        <path d="M12 2.87256C7.8 2.87256 4 6.09256 4 11.0726C4 14.3926 6.67 18.3226 12 22.8726C17.33 18.3226 20 14.3926 20 11.0726C20 6.09256 16.2 2.87256 12 2.87256ZM12 12.8726C10.9 12.8726 10 11.9726 10 10.8726C10 9.77256 10.9 8.87256 12 8.87256C13.1 8.87256 14 9.77256 14 10.8726C14 11.9726 13.1 12.8726 12 12.8726Z" />
    </symbol>

    <symbol viewBox="0 0 24 25" id="footer-email">
        <path d="M20 4.37256H4C2.9 4.37256 2.01 5.27256 2.01 6.37256L2 18.3726C2 19.4726 2.9 20.3726 4 20.3726H20C21.1 20.3726 22 19.4726 22 18.3726V6.37256C22 5.27256 21.1 4.37256 20 4.37256ZM20 8.37256L12 13.3726L4 8.37256V6.37256L12 11.3726L20 6.37256V8.37256Z" />
    </symbol>

    <symbol viewBox="0 0 24 25" id="footer-phone">
        <path d="M20.01 15.7526C18.78 15.7526 17.59 15.5526 16.48 15.1926C16.13 15.0726 15.74 15.1626 15.47 15.4326L13.9 17.4026C11.07 16.0526 8.42 13.5026 7.01 10.5726L8.96 8.91256C9.23 8.63256 9.31 8.24256 9.2 7.89256C8.83 6.78256 8.64 5.59256 8.64 4.36256C8.64 3.82256 8.19 3.37256 7.65 3.37256H4.19C3.65 3.37256 3 3.61256 3 4.36256C3 13.6526 10.73 21.3726 20.01 21.3726C20.72 21.3726 21 20.7426 21 20.1926V16.7426C21 16.2026 20.55 15.7526 20.01 15.7526Z" />
    </symbol>

    <symbol viewBox="0 0 26 31" id="corner">
        <path d="M0.0195299 0.0351639L26.0003 0.0351494L26.0003 30.0352L0.0195299 0.0351639Z" fill="white" />
        <path d="M7.20508 0.0352917L26.0004 0.0352813L26.0004 21.7383L7.20508 0.0352917Z" />
    </symbol>

    <symbol viewBox="0 0 17 17" id="btn-arrow">
        <path d="M8.93945 0.997559L7.52945 2.40756L13.1095 7.99756H0.939453V9.99756H13.1095L7.52945 15.5876L8.93945 16.9976L16.9395 8.99756L8.93945 0.997559Z" />
    </symbol>

    <symbol viewBox="0 0 17 21" id="catalogue-address">
        <path d="M8.3623 0.800781C4.1623 0.800781 0.362305 4.02078 0.362305 9.00078C0.362305 12.3208 3.0323 16.2508 8.3623 20.8008C13.6923 16.2508 16.3623 12.3208 16.3623 9.00078C16.3623 4.02078 12.5623 0.800781 8.3623 0.800781ZM8.3623 10.8008C7.2623 10.8008 6.3623 9.90078 6.3623 8.80078C6.3623 7.70078 7.2623 6.80078 8.3623 6.80078C9.46231 6.80078 10.3623 7.70078 10.3623 8.80078C10.3623 9.90078 9.46231 10.8008 8.3623 10.8008Z" />
    </symbol>

    <symbol viewBox="0 0 15 20" id="catalogue-type">
        <path d="M2.3623 17.8007C1.2623 17.8007 0.362305 18.7007 0.362305 19.8007H14.3623C14.3623 18.7007 13.4623 17.8007 12.3623 17.8007H8.3623V15.8007H11.3623C12.4623 15.8007 13.3623 14.9007 13.3623 13.8007H5.3623C3.7023 13.8007 2.3623 12.4607 2.3623 10.8007C2.3623 9.71066 2.9523 8.76066 3.8223 8.24066C3.5323 7.83066 3.3623 7.34066 3.3623 6.80066C3.3623 6.59066 3.4023 6.38066 3.4523 6.18066C1.6423 6.93066 0.362305 8.72066 0.362305 10.8007C0.362305 13.5607 2.6023 15.8007 5.3623 15.8007V17.8007H2.3623Z" />
        <path d="M5.92231 4.31078C7.27231 4.34078 8.3623 5.44078 8.3623 6.80078C8.3623 7.55078 8.0323 8.21078 7.5123 8.67078L8.1023 10.2908L9.0423 9.95078L9.38231 10.8908L11.2623 10.2108L10.9223 9.27078L11.8623 8.93078L9.1223 1.40078L8.1823 1.74078L7.8423 0.800781L5.96231 1.48078L6.3023 2.42078L5.3623 2.77078L5.92231 4.31078Z" />
        <path d="M5.8623 8.30078C6.69073 8.30078 7.3623 7.62921 7.3623 6.80078C7.3623 5.97235 6.69073 5.30078 5.8623 5.30078C5.03388 5.30078 4.3623 5.97235 4.3623 6.80078C4.3623 7.62921 5.03388 8.30078 5.8623 8.30078Z" />
    </symbol>

    <symbol viewBox="0 0 21 22" id="catalogue-gov">
        <path d="M5.3623 9.15234H2.3623V16.1523H5.3623V9.15234Z" />
        <path d="M11.8623 9.15234H8.8623V16.1523H11.8623V9.15234Z" />
        <path d="M20.3623 18.1523H0.362305V21.1523H20.3623V18.1523Z" />
        <path d="M18.3623 9.15234H15.3623V16.1523H18.3623V9.15234Z" />
        <path d="M10.3623 0.152344L0.362305 5.15234V7.15234H20.3623V5.15234L10.3623 0.152344Z" />
    </symbol>

    <symbol viewBox="0 0 17 17" id="btn-arrow">
        <path d="M8.45898 0.902344L7.04898 2.31234L12.629 7.90234L0.458984 7.90234L0.458984 9.90234L12.629 9.90234L7.04898 15.4923L8.45898 16.9023L16.459 8.90234L8.45898 0.902344Z" />
    </symbol>

    <symbol viewBox="0 0 23 20" id="btn-file">
        <path d="M20.7935 2.33125C22.7461 4.28387 22.7461 7.44969 20.7935 9.40231L12.3082 17.8876C9.57454 20.6213 5.14239 20.6213 2.40872 17.8876C-0.32495 15.1539 -0.32495 10.7218 2.40872 7.9881L8.06557 2.33125L9.47979 3.74546L3.82293 9.40231C1.87031 11.3549 1.87031 14.5208 3.82293 16.4734C5.77556 18.426 8.94138 18.426 10.894 16.4734L19.3793 7.9881C20.5509 6.81653 20.5509 4.91703 19.3793 3.74546C18.2077 2.57389 16.3082 2.57389 15.1366 3.74546L6.65136 12.2307C6.26084 12.6213 6.26084 13.2544 6.65136 13.645C7.04188 14.0355 7.67505 14.0355 8.06557 13.645L15.8437 5.86678L17.258 7.28099L9.47979 15.0592C8.30821 16.2307 6.40872 16.2307 5.23715 15.0592C4.06557 13.8876 4.06557 11.9881 5.23715 10.8165L13.7224 2.33125C15.675 0.378625 18.8409 0.378624 20.7935 2.33125Z" />
    </symbol>

    <symbol viewBox="0 0 18 18" id="window-close">
        <path d="M16.0391 1.7002L1.03906 16.7002" stroke-width="2" stroke-linecap="round" stroke-linejoin="round" />
        <path d="M1.03906 1.7002L16.0391 16.7002" stroke-width="2" stroke-linecap="round" stroke-linejoin="round" />
    </symbol>

    <symbol viewBox="0 0 7 13" id="pager-prev">
        <path d="M6 1.03418L1 6.53418L6 12.0342" stroke-width="1.4" />
    </symbol>

    <symbol viewBox="0 0 7 13" id="pager-next">
        <path d="M1 12.0344L6 6.53442L1 1.03442" stroke-width="1.4" />
    </symbol>

    <symbol viewBox="0 0 17 17" id="back-link">
        <path d="M8.82422 16.5L10.2342 15.09L4.65422 9.5L16.8242 9.5L16.8242 7.5L4.65422 7.5L10.2342 1.91L8.82422 0.499999L0.824219 8.5L8.82422 16.5Z" />
    </symbol>

    <symbol viewBox="0 0 19 19" id="main-filter-detail-link">
        <path d="M3.3275 5.21533L2 6.54283L9.5 14.0428L17 6.54283L15.6725 5.21533L9.5 11.3878L3.3275 5.21533Z" />
    </symbol>

    <symbol viewBox="0 0 25 24" id="faq-arrow">
        <path d="M4.44578 6.23047L2.67578 8.00047L12.6758 18.0005L22.6758 8.00047L20.9058 6.23047L12.6758 14.4605L4.44578 6.23047Z" />
    </symbol>

    <symbol viewBox="0 0 25 24" id="contacts-address">
        <path d="M11.9746 2.75195C7.77461 2.75195 3.97461 5.97195 3.97461 10.952C3.97461 14.272 6.64461 18.202 11.9746 22.752C17.3046 18.202 19.9746 14.272 19.9746 10.952C19.9746 5.97195 16.1746 2.75195 11.9746 2.75195ZM11.9746 12.752C10.8746 12.752 9.97461 11.852 9.97461 10.752C9.97461 9.65195 10.8746 8.75195 11.9746 8.75195C13.0746 8.75195 13.9746 9.65195 13.9746 10.752C13.9746 11.852 13.0746 12.752 11.9746 12.752Z" />
    </symbol>

    <symbol viewBox="0 0 25 24" id="contacts-persone">
        <path d="M12.1797 12C14.3897 12 16.1797 10.21 16.1797 8C16.1797 5.79 14.3897 4 12.1797 4C9.96969 4 8.17969 5.79 8.17969 8C8.17969 10.21 9.96969 12 12.1797 12ZM12.1797 14C9.50969 14 4.17969 15.34 4.17969 18V20H20.1797V18C20.1797 15.34 14.8497 14 12.1797 14Z" />
    </symbol>

    <symbol viewBox="0 0 25 25" id="btn-phone">
        <path d="M20.1897 16.132C18.9597 16.132 17.7697 15.932 16.6597 15.572C16.3097 15.452 15.9197 15.542 15.6497 15.812L14.0797 17.782C11.2497 16.432 8.59969 13.882 7.18969 10.952L9.13969 9.29195C9.40969 9.01195 9.48969 8.62195 9.37969 8.27195C9.00969 7.16195 8.81969 5.97195 8.81969 4.74195C8.81969 4.20195 8.36969 3.75195 7.82969 3.75195H4.36969C3.82969 3.75195 3.17969 3.99195 3.17969 4.74195C3.17969 14.032 10.9097 21.752 20.1897 21.752C20.8997 21.752 21.1797 21.122 21.1797 20.572V17.122C21.1797 16.582 20.7297 16.132 20.1897 16.132Z" />
    </symbol>

    <symbol viewBox="0 0 25 25" id="btn-email">
        <path d="M20.1797 4.75195H4.17969C3.07969 4.75195 2.18969 5.65195 2.18969 6.75195L2.17969 18.752C2.17969 19.852 3.07969 20.752 4.17969 20.752H20.1797C21.2797 20.752 22.1797 19.852 22.1797 18.752V6.75195C22.1797 5.65195 21.2797 4.75195 20.1797 4.75195ZM20.1797 8.75195L12.1797 13.752L4.17969 8.75195V6.75195L12.1797 11.752L20.1797 6.75195V8.75195Z" />
    </symbol>

    <symbol viewBox="0 0 25 25" id="btn-filter">
        <path d="M3.3623 17.8374V19.8374H9.3623V17.8374H3.3623ZM3.3623 5.8374V7.8374H13.3623V5.8374H3.3623ZM13.3623 21.8374V19.8374H21.3623V17.8374H13.3623V15.8374H11.3623V21.8374H13.3623ZM7.3623 9.8374V11.8374H3.3623V13.8374H7.3623V15.8374H9.3623V9.8374H7.3623ZM21.3623 13.8374V11.8374H11.3623V13.8374H21.3623ZM15.3623 9.8374H17.3623V7.8374H21.3623V5.8374H17.3623V3.8374H15.3623V9.8374Z" />
    </symbol>

    <symbol viewBox="0 0 25 24" id="btn-reset-icon">
        <path d="M14.9523 8L12.3623 10.59L9.7723 8L8.3623 9.41L10.9523 12L8.3623 14.59L9.7723 16L12.3623 13.41L14.9523 16L16.3623 14.59L13.7723 12L16.3623 9.41L14.9523 8ZM12.3623 2C6.8323 2 2.3623 6.47 2.3623 12C2.3623 17.53 6.8323 22 12.3623 22C17.8923 22 22.3623 17.53 22.3623 12C22.3623 6.47 17.8923 2 12.3623 2ZM12.3623 20C7.9523 20 4.3623 16.41 4.3623 12C4.3623 7.59 7.9523 4 12.3623 4C16.7723 4 20.3623 7.59 20.3623 12C20.3623 16.41 16.7723 20 12.3623 20Z" />
    </symbol>

    <symbol viewBox="0 0 16 9" id="catalogue-filter-hide">
        <path d="M14.5348 8.91382L15.8623 7.58632L8.3623 0.0863191L0.862305 7.58632L2.1898 8.91382L8.3623 2.74132L14.5348 8.91382Z" />
    </symbol>

</svg>