<svg width="154" height="155" viewBox="0 0 154 155" fill="none" xmlns="http://www.w3.org/2000/svg">
<path d="M125.91 59.397L93.0794 87.9444C93.0674 87.9547 93.0573 87.9664 93.0456 87.9769C93.0223 87.998 93.0002 88.0205 92.9775 88.0425C92.935 88.0834 92.8932 88.124 92.854 88.1667C92.8388 88.1835 92.8248 88.2013 92.8101 88.2187C92.7662 88.2696 92.7229 88.3213 92.6828 88.3749C92.6762 88.3842 92.67 88.3941 92.6634 88.4037C92.6174 88.4672 92.5734 88.5319 92.5337 88.5983C92.5322 88.601 92.5307 88.6037 92.5292 88.6061C92.4381 88.7595 92.3634 88.9205 92.3051 89.0868C92.3048 89.0877 92.3045 89.0886 92.3042 89.0895C92.2743 89.1743 92.2489 89.2603 92.2277 89.3476C92.2274 89.3494 92.2265 89.3512 92.2262 89.353C89.8033 99.3756 80.9422 106.376 70.6777 106.376C58.4497 106.376 48.5011 96.3627 48.5011 84.0544C48.5011 73.0497 56.3671 63.8146 67.0039 62.0415L85.6236 82.6026C86.1038 83.1334 86.7744 83.4499 87.4868 83.4832C87.5283 83.4854 87.5696 83.4863 87.6111 83.4863C88.2799 83.4863 88.9262 83.2351 89.4229 82.7797L112.241 61.845C112.769 61.3617 113.083 60.6867 113.116 59.9697C113.149 59.2526 112.898 58.5515 112.417 58.0209L68.6684 9.71153C67.6676 8.60646 65.967 8.52766 64.8691 9.53437L55.4482 18.1776L49.61 11.7307C48.6093 10.6256 46.9083 10.5465 45.8107 11.5535C44.7131 12.5608 44.6343 14.2729 45.635 15.3776L51.4732 21.8246L42.0518 30.4684C40.9542 31.4758 40.8753 33.1878 41.8761 34.2926L48.6571 41.7808C33.1174 49.978 23.2642 66.185 23.2642 84.0541C23.2642 96.3937 27.9271 108.101 36.3938 117.02C36.9221 117.576 37.6297 117.857 38.3385 117.857C39.0061 117.857 39.6752 117.608 40.1961 117.107C41.27 116.074 41.3086 114.36 40.2824 113.279C32.7765 105.373 28.6428 94.9938 28.6428 84.0541C28.6428 67.7322 37.9157 52.9768 52.4202 45.9367L62.8481 57.4518C51.3175 60.857 43.1222 71.535 43.1222 84.0538C43.1222 99.3474 55.4835 111.789 70.6777 111.789C83.1344 111.789 93.9241 103.487 97.2253 91.4933L112.33 78.3591C112.581 80.2408 112.712 82.1439 112.712 84.0538C112.712 107.383 93.8554 126.364 70.6774 126.364C64.9327 126.364 59.3665 125.219 54.1331 122.961C52.7821 122.378 51.4448 121.715 50.159 120.989C48.8636 120.259 47.2242 120.723 46.498 122.027C45.7719 123.332 46.2339 124.981 47.5296 125.712C48.9804 126.531 50.4892 127.279 52.0141 127.937C54.8359 129.154 57.7438 130.081 60.7166 130.722V139.898H51.7018C50.2164 139.898 49.0124 141.11 49.0124 142.605C49.0124 144.101 50.2164 145.312 51.7018 145.312H63.406H77.9491H89.6533C91.1388 145.312 92.3428 144.101 92.3428 142.605C92.3428 141.11 91.1388 139.898 89.6533 139.898H80.6385V130.714C102.016 126.096 118.091 106.93 118.091 84.0535C118.091 80.7413 117.75 77.4442 117.081 74.2273L129.426 63.493C130.55 62.5158 130.674 60.8061 129.703 59.6749C128.732 58.5446 127.033 58.4197 125.91 59.397ZM87.7871 76.9551L82.2454 70.8354L101.089 53.5483L106.63 59.6674L87.7871 76.9551ZM66.5052 15.359L97.4653 49.5473L78.6221 66.8344L47.6626 32.6464L66.5052 15.359ZM75.2599 139.899H66.0958V131.557C67.6105 131.702 69.1385 131.778 70.6777 131.778C72.2236 131.778 73.7518 131.701 75.2599 131.554V139.899Z" fill="#2A57B5"/>
</svg>
