<svg width="61" height="61" viewBox="0 0 61 61" fill="none" xmlns="http://www.w3.org/2000/svg">
<path d="M49.0654 43.8223L52.7468 43.0858V33.7809L49.0654 33.0444C48.6716 31.6873 48.131 30.3813 47.4525 29.1468L49.5345 26.0242L42.9544 19.4451L39.8319 21.5271C38.5993 20.8486 37.2923 20.308 35.9352 19.9142L35.1987 16.2328H25.8938L25.1583 19.9142C23.8118 20.3051 22.5164 20.8389 21.2935 21.5088L18.1323 19.4519L11.5648 26.0184L13.6217 29.1815C12.9576 30.3939 12.4277 31.6767 12.0378 33.0087L8.3457 33.7896V43.0762L12.0378 43.858C12.4267 45.19 12.9576 46.4728 13.6217 47.6852L11.5648 50.8483L18.1323 57.4148L21.2935 55.3579C22.5058 56.021 23.7886 56.5519 25.1206 56.9419L25.9025 60.6339H35.1891L35.9719 56.9419C37.3155 56.549 38.6089 56.0114 39.8309 55.3396L42.9535 57.4216L49.5335 50.8425L47.4515 47.7199C48.131 46.4854 48.6706 45.1785 49.0654 43.8223ZM47.05 50.5964L42.7093 54.938L39.9014 53.0664L39.3792 53.3763C37.9873 54.2006 36.4825 54.826 34.9072 55.2343L34.329 55.384L33.6244 58.7034H27.4671L26.7635 55.383L26.1853 55.2334C24.6235 54.8289 23.1313 54.2112 21.749 53.3975L21.2336 53.0944L18.39 54.9438L14.0358 50.5896L15.8852 47.745L15.5821 47.2296C14.7684 45.8483 14.1516 44.3561 13.7472 42.7943L13.5985 42.2152L10.2762 41.5115V35.3542L13.5976 34.6506L13.7462 34.0714C14.1507 32.5097 14.7684 31.0174 15.5812 29.6361L15.8842 29.1207L14.0348 26.2761L18.389 21.9219L21.2326 23.7713L21.7481 23.4682C23.1409 22.6468 24.6477 22.0262 26.2258 21.6217L26.8137 21.4712L27.4768 18.1633H33.6148L34.2769 21.4721L34.8648 21.6227C36.4545 22.03 37.9738 22.6584 39.3782 23.4914L39.9004 23.8012L42.7083 21.9296L47.049 26.2713L45.1784 29.0792L45.4872 29.6014C46.3193 31.0068 46.9486 32.5251 47.3559 34.1149L47.5065 34.7027L50.8163 35.3639V41.5028L47.5065 42.165L47.3559 42.7528C46.9486 44.3426 46.3202 45.8609 45.4872 47.2663L45.1784 47.7885L47.05 50.5964Z" fill="#1C48A3"/>
<path d="M31.5115 20.0937H29.5811V22.0242H31.5115V20.0937Z" fill="#1C48A3"/>
<path d="M18.2615 24.7822L16.8965 26.1472L18.2615 27.5123L19.6266 26.1472L18.2615 24.7822Z" fill="#1C48A3"/>
<path d="M14.1375 37.468H12.207V39.3985H14.1375V37.468Z" fill="#1C48A3"/>
<path d="M18.2611 49.3534L16.896 50.7185L18.2611 52.0835L19.6261 50.7185L18.2611 49.3534Z" fill="#1C48A3"/>
<path d="M31.5115 54.8423H29.5811V56.7728H31.5115V54.8423Z" fill="#1C48A3"/>
<path d="M42.8314 49.3534L41.4663 50.7185L42.8314 52.0835L44.1964 50.7185L42.8314 49.3534Z" fill="#1C48A3"/>
<path d="M48.886 37.468H46.9556V39.3985H48.886V37.468Z" fill="#1C48A3"/>
<path d="M42.8314 24.7822L41.4663 26.1472L42.8314 27.5123L44.1964 26.1472L42.8314 24.7822Z" fill="#1C48A3"/>
<path d="M30.5467 25.8852C23.6278 25.8852 17.9985 31.5145 17.9985 38.4333C17.9985 45.3522 23.6278 50.9815 30.5467 50.9815C37.4655 50.9815 43.0948 45.3522 43.0948 38.4333C43.0948 31.5145 37.4655 25.8852 30.5467 25.8852ZM30.5467 49.051C24.6925 49.051 19.929 44.2875 19.929 38.4333C19.929 32.5791 24.6925 27.8157 30.5467 27.8157C36.4009 27.8157 41.1643 32.5791 41.1643 38.4333C41.1643 44.2875 36.4009 49.051 30.5467 49.051Z" fill="#1C48A3"/>
<path d="M30.5467 31.6766C26.8219 31.6766 23.79 34.7075 23.79 38.4333C23.79 42.1592 26.8219 45.19 30.5467 45.19C34.2716 45.19 37.3034 42.1592 37.3034 38.4333C37.3034 34.7075 34.2716 31.6766 30.5467 31.6766ZM30.5467 43.2595C27.8856 43.2595 25.7205 41.0945 25.7205 38.4333C25.7205 35.7722 27.8856 33.6071 30.5467 33.6071C33.2079 33.6071 35.3729 35.7722 35.3729 38.4333C35.3729 41.0945 33.2079 43.2595 30.5467 43.2595Z" fill="#1C48A3"/>
<path d="M54.6776 50.9814H52.7471V52.9119H54.6776V50.9814Z" fill="#1C48A3"/>
<path d="M54.6776 54.8423H52.7471V56.7728H54.6776V54.8423Z" fill="#1C48A3"/>
<path d="M56.6082 52.9119H54.6777V54.8424H56.6082V52.9119Z" fill="#1C48A3"/>
<path d="M52.7474 52.9119H50.8169V54.8424H52.7474V52.9119Z" fill="#1C48A3"/>
<path d="M4.48517 52.9119H2.55469V54.8424H4.48517V52.9119Z" fill="#1C48A3"/>
<path d="M4.48517 56.7729H2.55469V58.7034H4.48517V56.7729Z" fill="#1C48A3"/>
<path d="M6.41535 54.8423H4.48486V56.7728H6.41535V54.8423Z" fill="#1C48A3"/>
<path d="M2.55451 54.8423H0.624023V56.7728H2.55451V54.8423Z" fill="#1C48A3"/>
<path d="M58.5384 20.0937H56.6079V22.0242H58.5384V20.0937Z" fill="#1C48A3"/>
<path d="M58.5384 23.9547H56.6079V25.8851H58.5384V23.9547Z" fill="#1C48A3"/>
<path d="M60.4691 22.0242H58.5386V23.9547H60.4691V22.0242Z" fill="#1C48A3"/>
<path d="M56.6082 22.0242H54.6777V23.9547H56.6082V22.0242Z" fill="#1C48A3"/>
<path d="M6.41535 22.0242H4.48486V23.9547H6.41535V22.0242Z" fill="#1C48A3"/>
<path d="M6.41535 25.8852H4.48486V27.8157H6.41535V25.8852Z" fill="#1C48A3"/>
<path d="M8.34601 23.9547H6.41553V25.8851H8.34601V23.9547Z" fill="#1C48A3"/>
<path d="M4.48517 23.9547H2.55469V25.8851H4.48517V23.9547Z" fill="#1C48A3"/>
<path d="M9.31098 18.1632C12.2057 18.1632 14.921 16.697 16.5262 14.3023H44.5674C46.1726 16.697 48.8878 18.1632 51.7826 18.1632C53.7748 18.1632 55.6542 17.4982 57.215 16.2405L57.574 15.9509V12.3718H53.3443L51.8965 9.47606L53.3443 6.58033H57.5731V3.00121L57.214 2.71164C55.6532 1.45393 53.7739 0.788879 51.7816 0.788879C48.8869 0.788879 46.1716 2.25508 44.5664 4.64985H16.5262C14.921 2.25508 12.2057 0.788879 9.31098 0.788879C7.31872 0.788879 5.4394 1.45393 3.8786 2.71164L3.51953 3.00121V6.58033H7.74922L9.19708 9.47606L7.74922 12.3718H3.51953V15.9509L3.8786 16.2405C5.4394 17.4982 7.31872 18.1632 9.31098 18.1632ZM5.45001 14.3023H8.94226L11.3554 9.47606L8.94226 4.64985H5.45001V3.94329C6.58803 3.14117 7.91331 2.71936 9.31098 2.71936C11.7086 2.71936 13.949 4.01472 15.1565 6.09867L15.4354 6.58033H45.6581L45.9371 6.09867C47.1436 4.01472 49.384 2.71936 51.7816 2.71936C53.1793 2.71936 54.5046 3.14117 55.6426 3.94329V4.64985H52.1503L49.7372 9.47606L52.1503 14.3023H55.6426V15.0088C54.5046 15.8109 53.1793 16.2327 51.7816 16.2327C49.384 16.2327 47.1436 14.9374 45.9361 12.8534L45.6572 12.3718H15.4354L15.1565 12.8534C13.949 14.9374 11.7086 16.2327 9.31098 16.2327C7.91331 16.2327 6.58803 15.8109 5.45001 15.0088V14.3023Z" fill="#1C48A3"/>
</svg>
