<svg width="76" height="74" viewBox="0 0 76 74" fill="none" xmlns="http://www.w3.org/2000/svg">
<path d="M26.3343 21.8421L24.1361 20.5717C24.7544 18.9377 24.7544 17.1341 24.1361 15.5001L26.3343 14.2297L26.9416 15.2815L29.0462 14.067L26.6173 9.86003L24.5126 11.0745L25.1198 12.1262L22.9253 13.393C21.8101 12.0488 20.2497 11.1495 18.5276 10.8583V8.32007H19.7421V5.89111H14.8842V8.32007H16.0987V10.8583C14.3766 11.1495 12.8162 12.0488 11.7011 13.393L9.50649 12.1262L10.1137 11.0745L8.00904 9.86003L5.58008 14.067L7.68477 15.2815L8.29201 14.2297L10.4902 15.5001C9.87193 17.1341 9.87193 18.9377 10.4902 20.5717L8.29201 21.8421L7.68477 20.7903L5.58008 22.0048L8.00904 26.2118L10.1137 24.9973L9.50649 23.9456L11.7011 22.6789C12.8162 24.023 14.3766 24.9223 16.0987 25.2135V27.7517H14.8842V30.1807H19.7421V27.7517H18.5276V25.2135C20.2497 24.9223 21.8101 24.023 22.9253 22.6789L25.1198 23.9456L24.5126 24.9973L26.6173 26.2118L29.0462 22.0048L26.9416 20.7903L26.3343 21.8421ZM17.3132 22.8938C16.3524 22.8938 15.4131 22.6089 14.6143 22.0751C13.8154 21.5413 13.1927 20.7826 12.825 19.8949C12.4573 19.0073 12.3611 18.0305 12.5486 17.0882C12.736 16.1458 13.1987 15.2802 13.8781 14.6008C14.5575 13.9214 15.4231 13.4588 16.3654 13.2713C17.3078 13.0839 18.2845 13.1801 19.1722 13.5478C20.0599 13.9155 20.8186 14.5381 21.3524 15.337C21.8862 16.1359 22.1711 17.0751 22.1711 18.0359C22.1711 19.3243 21.6593 20.5599 20.7482 21.471C19.8372 22.382 18.6016 22.8938 17.3132 22.8938Z" fill="#1C48A3"/>
<path d="M17.3133 1.03271C13.9504 1.03271 10.6631 2.02991 7.86706 3.89819C5.07098 5.76647 2.8917 8.42193 1.60481 11.5288C0.317914 14.6356 -0.0187964 18.0543 0.637257 21.3525C1.29331 24.6507 2.91266 27.6803 5.29053 30.0582C7.6684 32.436 10.698 34.0554 13.9962 34.7114C17.2944 35.3675 20.7131 35.0308 23.8199 33.7439C26.9268 32.457 29.5822 30.2777 31.4505 27.4816C33.3188 24.6855 34.316 21.3982 34.316 18.0354C34.3111 13.5275 32.5182 9.2056 29.3307 6.01802C26.1431 2.83044 21.8212 1.03754 17.3133 1.03271ZM17.3133 32.6092C14.4308 32.6092 11.6132 31.7544 9.21652 30.1531C6.81988 28.5517 4.95193 26.2756 3.84887 23.6126C2.74582 20.9496 2.45721 18.0193 3.01954 15.1922C3.58187 12.3652 4.96989 9.7684 7.00807 7.73023C9.04624 5.69205 11.643 4.30403 14.4701 3.7417C17.2971 3.17937 20.2274 3.46798 22.8904 4.57103C25.5534 5.67409 27.8295 7.54204 29.4309 9.93868C31.0323 12.3353 31.887 15.153 31.887 18.0354C31.8828 21.8993 30.346 25.6038 27.6138 28.336C24.8816 31.0682 21.1772 32.605 17.3133 32.6092Z" fill="#1C48A3"/>
<path d="M75.6082 43.5397C75.6055 42.602 75.3846 41.6777 74.963 40.8401C74.5415 40.0024 73.9308 39.2743 73.1793 38.7134V32.6094C73.1792 32.2873 73.0512 31.9785 72.8234 31.7508L61.5373 20.4646L66.751 15.2509C66.9787 15.0231 67.1066 14.7143 67.1066 14.3922C67.1066 14.0702 66.9787 13.7613 66.751 13.5336L66.3952 13.1777L69.5358 10.0371L71.1061 11.6074L72.8234 9.89015L63.1076 0.174316L61.3903 1.89159L62.9606 3.46191L59.82 6.60256L59.4641 6.24671C59.2364 6.01903 58.9275 5.89113 58.6055 5.89113C58.2835 5.89113 57.9746 6.01903 57.7469 6.24671L41.9586 22.0349C41.7309 22.2626 41.6029 22.5715 41.6028 22.8936V32.6094H40.3883C40.0662 32.6094 39.7573 32.7374 39.5296 32.9651C39.3018 33.1929 39.1738 33.5018 39.1738 33.8239V45.9687C39.1738 46.2908 39.3018 46.5997 39.5296 46.8275C39.7573 47.0552 40.0662 47.1832 40.3883 47.1832H46.4607V50.8266C46.4607 51.1487 46.5887 51.4576 46.8164 51.6854C47.0442 51.9131 47.3531 52.0411 47.6752 52.0411H52.5331C52.8552 52.0411 53.1641 51.9131 53.3919 51.6854C53.6196 51.4576 53.7476 51.1487 53.7476 50.8266V47.1832H59.82C60.1421 47.1832 60.451 47.0552 60.6788 46.8275C60.9065 46.5997 61.0345 46.2908 61.0345 45.9687V33.8239C61.0345 33.5018 60.9065 33.1929 60.6788 32.9651C60.451 32.7374 60.1421 32.6094 59.82 32.6094H58.6055V28.2543L64.6779 34.3267V39.9339C63.8899 40.9709 63.4633 42.2374 63.4633 43.5397C63.4633 44.8421 63.8899 46.1086 64.6779 47.1455V54.47H37.9594V56.899H64.6779V65.4004H58.6055V61.7569C58.6055 61.4348 58.4776 61.1259 58.2498 60.8982C58.022 60.6704 57.7131 60.5424 57.391 60.5424H42.8173C42.4952 60.5424 42.1863 60.6704 41.9585 60.8982C41.7308 61.1259 41.6028 61.4348 41.6028 61.7569V65.4004H33.1014C32.1351 65.4004 31.2084 65.7842 30.5251 66.4675C29.8419 67.1508 29.458 68.0775 29.458 69.0438V72.6872C29.458 73.0093 29.586 73.3182 29.8137 73.546C30.0415 73.7738 30.3504 73.9017 30.6725 73.9017H67.1069C68.7168 73.8998 70.2602 73.2594 71.3986 72.121C72.5369 70.9826 73.1773 69.4392 73.1793 67.8293V48.3661C73.9308 47.8051 74.5415 47.0771 74.963 46.2394C75.3846 45.4017 75.6055 44.4775 75.6082 43.5397ZM64.6779 5.17919L67.8186 8.31983L64.6779 11.4605L61.5373 8.31983L64.6779 5.17919ZM51.3186 49.6121H48.8897V47.1832H51.3186V49.6121ZM58.6055 44.7542H41.6028V35.0384H58.6055V44.7542ZM44.0318 32.6094V23.3964L58.6055 8.82262L64.1751 14.3922L56.5324 22.0349C56.3046 22.2626 56.1766 22.5715 56.1766 22.8936V32.6094H44.0318ZM58.6055 24.8197V23.3964L59.82 22.1819L70.7503 33.1122V37.5888C69.5246 37.3373 68.251 37.4745 67.1069 37.9811V33.8239C67.1068 33.5018 66.9788 33.193 66.751 32.9653L58.6055 24.8197ZM44.0318 62.9714H56.1766V65.4004H44.0318V62.9714ZM70.7503 67.8293C70.7503 68.7956 70.3664 69.7223 69.6832 70.4056C68.9999 71.0889 68.0732 71.4728 67.1069 71.4728H31.887V69.0438C31.887 68.7217 32.0149 68.4128 32.2427 68.185C32.4704 67.9573 32.7793 67.8293 33.1014 67.8293H65.8924C66.2145 67.8293 66.5234 67.7014 66.7512 67.4736C66.9789 67.2458 67.1069 66.9369 67.1069 66.6148V49.0972C68.251 49.6038 69.5246 49.7409 70.7503 49.4895V67.8293ZM69.5358 47.1832C68.8152 47.1832 68.1108 46.9695 67.5116 46.5691C66.9125 46.1688 66.4455 45.5998 66.1697 44.934C65.894 44.2683 65.8218 43.5357 65.9624 42.8289C66.103 42.1222 66.45 41.473 66.9595 40.9634C67.4691 40.4539 68.1183 40.1069 68.825 39.9663C69.5318 39.8257 70.2644 39.8979 70.9301 40.1736C71.5959 40.4494 72.1649 40.9164 72.5652 41.5155C72.9656 42.1147 73.1793 42.8191 73.1793 43.5397C73.1793 44.506 72.7954 45.4328 72.1121 46.116C71.4288 46.7993 70.5021 47.1832 69.5358 47.1832Z" fill="#1C48A3"/>
<path d="M17.3137 37.4673H14.8848V39.8962H17.3137V37.4673Z" fill="#1C48A3"/>
<path d="M17.3137 42.3252H14.8848V44.7542H17.3137V42.3252Z" fill="#1C48A3"/>
<path d="M17.3137 47.1831H14.8848V49.6121H17.3137V47.1831Z" fill="#1C48A3"/>
<path d="M17.3137 52.041H14.8848V54.47H17.3137V52.041Z" fill="#1C48A3"/>
<path d="M17.3137 56.8994H14.8848V59.3284H17.3137V56.8994Z" fill="#1C48A3"/>
<path d="M17.3137 61.7568H14.8848V64.1858H17.3137V61.7568Z" fill="#1C48A3"/>
<path d="M17.3137 66.6152H14.8848V69.0442H17.3137V66.6152Z" fill="#1C48A3"/>
<path d="M22.1711 66.6152H19.7422V69.0442H22.1711V66.6152Z" fill="#1C48A3"/>
<path d="M27.0295 66.6152H24.6006V69.0442H27.0295V66.6152Z" fill="#1C48A3"/>
<path d="M37.9592 10.7485H35.5303V13.1775H37.9592V10.7485Z" fill="#1C48A3"/>
<path d="M42.8176 10.7485H40.3887V13.1775H42.8176V10.7485Z" fill="#1C48A3"/>
<path d="M47.6751 10.7485H45.2461V13.1775H47.6751V10.7485Z" fill="#1C48A3"/>
</svg>
