<svg width="163" height="166" viewBox="0 0 163 166" fill="none" xmlns="http://www.w3.org/2000/svg">
<path d="M141.295 144.293H134.118V81.3401H140.627C142.2 81.3401 143.474 80.0417 143.474 78.4397C143.474 76.8377 142.2 75.5393 140.627 75.5393H134.118V40.2058C134.118 38.6038 132.843 37.3054 131.27 37.3054H83.9357V33.1788H107.764C109.337 33.1788 110.612 31.8804 110.612 30.2784V17.9121C110.612 16.3101 109.337 15.0117 107.764 15.0117H81.088C79.5152 15.0117 78.2404 16.3101 78.2404 17.9121V30.2784V37.3054H30.906C29.3331 37.3054 28.0583 38.6038 28.0583 40.2058V75.5396H21.3262C19.7533 75.5396 18.4785 76.8381 18.4785 78.44C18.4785 80.042 19.7533 81.3404 21.3262 81.3404H29.1724V115.513C29.1724 117.115 30.4472 118.414 32.0201 118.414C33.5929 118.414 34.8677 117.115 34.8677 115.513V81.3404H44.2103V144.293H34.8677V131.627C34.8677 130.025 33.5929 128.726 32.0201 128.726C30.4472 128.726 29.1724 130.025 29.1724 131.627V144.293H21.9944C20.4216 144.293 19.1468 145.592 19.1468 147.194C19.1468 148.796 20.4216 150.094 21.9944 150.094H32.0201H47.0579H66.7801H96.51H116.232H131.27H141.295C142.868 150.094 144.143 148.796 144.143 147.194C144.143 145.592 142.868 144.293 141.295 144.293ZM83.936 20.8125H104.917V27.378H83.936V20.8125ZM33.7537 75.5393V43.1062H128.422V75.5396H116.232H47.0579H33.7537V75.5393ZM49.9056 81.3401H113.385V144.293H99.3576V103.627C99.3576 93.6793 91.412 85.5866 81.6452 85.5866C71.8784 85.5866 63.9328 93.6793 63.9328 103.627V144.293H49.9059V81.3401H49.9056ZM93.6623 103.627V105.495H84.4929V91.7374C89.7487 93.0435 93.6623 97.8772 93.6623 103.627ZM78.7976 105.495H69.6281V103.627C69.6281 97.8768 73.5417 93.0432 78.7976 91.737V105.495ZM69.6278 111.295H78.7972V124.384H69.6278V111.295ZM84.4929 111.295H93.6623V124.384H84.4929V111.295ZM69.6278 130.186H78.7972V144.293H69.6278V130.186ZM84.4929 144.293V130.186H93.6623V144.293H84.4929ZM119.08 144.293V81.3401H128.422V144.293H119.08Z" fill="#2A57B5"/>
<path d="M63.2727 65.4495V53.1967C63.2727 51.5947 61.9979 50.2963 60.425 50.2963H42.3794C40.8065 50.2963 39.5317 51.5947 39.5317 53.1967V65.4495C39.5317 67.0515 40.8065 68.3499 42.3794 68.3499H60.425C61.9979 68.3499 63.2727 67.0512 63.2727 65.4495ZM57.5773 62.5491H45.2271V56.097H57.5773V62.5491Z" fill="#2A57B5"/>
<path d="M72.0654 68.3499H90.1107C91.6836 68.3499 92.9584 67.0515 92.9584 65.4495V53.1967C92.9584 51.5947 91.6836 50.2963 90.1107 50.2963H72.0654C70.4926 50.2963 69.2178 51.5947 69.2178 53.1967V65.4495C69.2178 67.0512 70.4929 68.3499 72.0654 68.3499ZM74.9131 56.0967H87.2631V62.5488H74.9131V56.0967Z" fill="#2A57B5"/>
<path d="M101.752 68.3499H119.797C121.37 68.3499 122.645 67.0515 122.645 65.4495V53.1967C122.645 51.5947 121.37 50.2963 119.797 50.2963H101.752C100.179 50.2963 98.9043 51.5947 98.9043 53.1967V65.4495C98.9043 67.0512 100.179 68.3499 101.752 68.3499ZM104.6 56.0967H116.95V62.5488H104.6V56.0967Z" fill="#2A57B5"/>
</svg>
