<svg width="61" height="61" viewBox="0 0 61 61" fill="none" xmlns="http://www.w3.org/2000/svg">
<g clip-path="url(#clip0_176_399)">
<path fill-rule="evenodd" clip-rule="evenodd" d="M59.1047 2.67664H51.5187L49.8117 0.969642C49.4207 0.578642 48.7887 0.578642 48.3977 0.969642L46.6907 2.67664H1.10474C0.552742 2.67664 0.104742 3.12464 0.104742 3.67664V15.6766C0.104742 16.2286 0.552742 16.6766 1.10474 16.6766H43.1047C43.6567 16.6766 44.1047 16.2286 44.1047 15.6766V11.6766C44.1047 11.1246 43.6567 10.6766 43.1047 10.6766C42.5527 10.6766 42.1047 11.1246 42.1047 11.6766V14.6766H38.1047V13.6766C38.1047 13.1246 37.6567 12.6766 37.1047 12.6766C36.5527 12.6766 36.1047 13.1246 36.1047 13.6766V14.6766H32.1047V13.6766C32.1047 13.1246 31.6567 12.6766 31.1047 12.6766C30.5527 12.6766 30.1047 13.1246 30.1047 13.6766V14.6766H26.1047V11.6766C26.1047 11.1246 25.6567 10.6766 25.1047 10.6766C24.5527 10.6766 24.1047 11.1246 24.1047 11.6766V14.6766H20.1047V13.6766C20.1047 13.1246 19.6567 12.6766 19.1047 12.6766C18.5527 12.6766 18.1047 13.1246 18.1047 13.6766V14.6766H14.1047V13.6766C14.1047 13.1246 13.6567 12.6766 13.1047 12.6766C12.5527 12.6766 12.1047 13.1246 12.1047 13.6766V14.6766H8.10474V11.6766C8.10474 11.1246 7.65674 10.6766 7.10474 10.6766C6.55274 10.6766 6.10474 11.1246 6.10474 11.6766V14.6766H2.10474V4.67664H47.1047C47.3697 4.67664 47.6247 4.57164 47.8117 4.38364L49.1047 3.09064L50.3977 4.38364C50.5847 4.57164 50.8397 4.67664 51.1047 4.67664H58.1047V14.6766H47.1047C46.5527 14.6766 46.1047 15.1246 46.1047 15.6766C46.1047 16.2286 46.5527 16.6766 47.1047 16.6766H59.1047C59.6567 16.6766 60.1047 16.2286 60.1047 15.6766V3.67664C60.1047 3.12464 59.6567 2.67664 59.1047 2.67664ZM54.1047 9.67664C54.1047 8.57364 53.2077 7.67664 52.1047 7.67664C51.0017 7.67664 50.1047 8.57364 50.1047 9.67664C50.1047 10.7796 51.0017 11.6766 52.1047 11.6766C53.2077 11.6766 54.1047 10.7796 54.1047 9.67664ZM8.10474 50.6766C8.10474 51.7796 9.00174 52.6766 10.1047 52.6766C11.2077 52.6766 12.1047 51.7796 12.1047 50.6766C12.1047 49.5736 11.2077 48.6766 10.1047 48.6766C9.00174 48.6766 8.10474 49.5736 8.10474 50.6766ZM50.8117 18.9696C50.4207 18.5786 49.7887 18.5786 49.3977 18.9696L10.1047 58.2626L2.51874 50.6766L12.1047 41.0906L13.3977 42.3836C13.5927 42.5786 13.8487 42.6766 14.1047 42.6766C14.3607 42.6766 14.6167 42.5786 14.8117 42.3836C15.2027 41.9926 15.2027 41.3606 14.8117 40.9696L13.5187 39.6766L16.1047 37.0906L17.3977 38.3836C17.5927 38.5786 17.8487 38.6766 18.1047 38.6766C18.3607 38.6766 18.6167 38.5786 18.8117 38.3836C19.2027 37.9926 19.2027 37.3606 18.8117 36.9696L17.5187 35.6766L20.1047 33.0906L23.3977 36.3836C23.5927 36.5786 23.8487 36.6766 24.1047 36.6766C24.3607 36.6766 24.6167 36.5786 24.8117 36.3836C25.2027 35.9926 25.2027 35.3606 24.8117 34.9696L21.5187 31.6766L24.1047 29.0906L25.3977 30.3836C25.5927 30.5786 25.8487 30.6766 26.1047 30.6766C26.3607 30.6766 26.6167 30.5786 26.8117 30.3836C27.2027 29.9926 27.2027 29.3606 26.8117 28.9696L25.5187 27.6766L28.1047 25.0906L29.3977 26.3836C29.5927 26.5786 29.8487 26.6766 30.1047 26.6766C30.3607 26.6766 30.6167 26.5786 30.8117 26.3836C31.2027 25.9926 31.2027 25.3606 30.8117 24.9696L29.5187 23.6766L32.1047 21.0906L35.3977 24.3836C35.7887 24.7746 36.4207 24.7746 36.8117 24.3836C37.2027 23.9926 37.2027 23.3606 36.8117 22.9696L32.8117 18.9696C32.4207 18.5786 31.7887 18.5786 31.3977 18.9696L0.397742 49.9696C0.00674218 50.3606 0.00674218 50.9926 0.397742 51.3836L9.39774 60.3836C9.59274 60.5786 9.84874 60.6766 10.1047 60.6766C10.3607 60.6766 10.6167 60.5786 10.8117 60.3836L50.8117 20.3836C51.2027 19.9926 51.2027 19.3606 50.8117 18.9696ZM60.1047 45.6766V57.6766C60.1047 58.2286 59.6567 58.6766 59.1047 58.6766H17.1047C16.5527 58.6766 16.1047 58.2286 16.1047 57.6766C16.1047 57.1246 16.5527 56.6766 17.1047 56.6766H58.1047V46.6766H54.1047V49.6766C54.1047 50.2286 53.6567 50.6766 53.1047 50.6766C52.5527 50.6766 52.1047 50.2286 52.1047 49.6766V46.6766H48.1047V47.6766C48.1047 48.2286 47.6567 48.6766 47.1047 48.6766C46.5527 48.6766 46.1047 48.2286 46.1047 47.6766V46.6766H42.1047V47.6766C42.1047 48.2286 41.6567 48.6766 41.1047 48.6766C40.5527 48.6766 40.1047 48.2286 40.1047 47.6766V46.6766H36.1047V49.6766C36.1047 50.2286 35.6567 50.6766 35.1047 50.6766C34.5527 50.6766 34.1047 50.2286 34.1047 49.6766V46.6766H30.1047V47.6766C30.1047 48.2286 29.6567 48.6766 29.1047 48.6766C28.5527 48.6766 28.1047 48.2286 28.1047 47.6766V45.6766C28.1047 45.1246 28.5527 44.6766 29.1047 44.6766H59.1047C59.6567 44.6766 60.1047 45.1246 60.1047 45.6766Z" fill="#1C48A3"/>
</g>
<defs>
<clipPath id="clip0_176_399">
<rect width="60" height="60" fill="white" transform="translate(0.10498 0.676636)"/>
</clipPath>
</defs>
</svg>
