<svg width="1165" height="251" viewBox="0 0 1165 251" fill="none" xmlns="http://www.w3.org/2000/svg">
<rect opacity="0.9" x="0.894531" y="1.47412" width="1162.67" height="249" fill="white" stroke="#E5E5E5"/>
<path d="M516.262 123.146V126.325H506.506V144.474H502.492V123.146H516.262ZM505.202 131.129H510.373C512.023 131.129 513.439 131.408 514.621 131.964C515.803 132.511 516.706 133.278 517.331 134.264C517.966 135.25 518.283 136.408 518.283 137.736C518.283 138.732 518.103 139.64 517.741 140.46C517.39 141.281 516.872 141.994 516.188 142.599C515.505 143.195 514.675 143.659 513.698 143.991C512.722 144.313 511.613 144.474 510.373 144.474H502.492V123.146H506.535V141.31H510.373C511.252 141.31 511.979 141.144 512.556 140.812C513.132 140.48 513.562 140.041 513.845 139.494C514.128 138.947 514.27 138.351 514.27 137.707C514.27 137.072 514.128 136.496 513.845 135.978C513.562 135.46 513.132 135.05 512.556 134.748C511.979 134.445 511.252 134.293 510.373 134.293H505.202V131.129ZM538.855 126.383L532.776 144.474H528.514L536.482 123.146H539.207L538.855 126.383ZM543.938 144.474L537.83 126.383L537.464 123.146H540.203L548.216 144.474H543.938ZM543.66 136.549V139.728H532.22V136.549H543.66ZM573.563 131.95V135.114H562.343V131.95H573.563ZM563.441 123.146V144.474H559.413V123.146H563.441ZM576.552 123.146V144.474H572.523V123.146H576.552ZM603.804 131.95V135.114H592.583V131.95H603.804ZM593.682 123.146V144.474H589.653V123.146H593.682ZM606.792 123.146V144.474H602.764V123.146H606.792ZM634.029 141.31V144.474H622.691V141.31H634.029ZM623.922 123.146V144.474H619.894V123.146H623.922ZM632.55 131.95V135.041H622.691V131.95H632.55ZM633.985 123.146V126.325H622.691V123.146H633.985ZM654.03 136.696H648.537V133.532H654.03C654.929 133.532 655.656 133.385 656.213 133.092C656.779 132.79 657.194 132.379 657.458 131.862C657.722 131.334 657.854 130.734 657.854 130.06C657.854 129.406 657.722 128.795 657.458 128.229C657.194 127.663 656.779 127.204 656.213 126.852C655.656 126.5 654.929 126.325 654.03 126.325H649.855V144.474H645.827V123.146H654.03C655.69 123.146 657.106 123.444 658.278 124.04C659.46 124.625 660.358 125.441 660.974 126.486C661.599 127.521 661.911 128.703 661.911 130.031C661.911 131.408 661.599 132.594 660.974 133.59C660.358 134.586 659.46 135.353 658.278 135.89C657.106 136.427 655.69 136.696 654.03 136.696Z" fill="#E5E5E5"/>
</svg>
