<svg width="165" height="165" viewBox="0 0 165 165" fill="none" xmlns="http://www.w3.org/2000/svg">
<path d="M144.072 61.3895L135.769 59.7171L136.203 57.5646C136.498 56.1018 135.627 54.6556 134.196 54.2315L124.484 51.3519C122.958 50.8989 121.353 51.7699 120.9 53.2962C120.448 54.8224 121.318 56.4269 122.845 56.8798L130.03 59.0102L129.55 61.3927C129.55 61.3969 129.548 61.4007 129.547 61.4049L127.164 73.2366C127.164 73.2388 127.164 73.2414 127.163 73.2433L126.682 75.6312L90.5755 71.6706L95.2056 48.6836L109.626 52.9601C111.151 53.4115 112.757 52.5421 113.21 51.0158C113.663 49.4896 112.792 47.8851 111.266 47.4322L55.9737 31.0363L56.8453 26.7083C56.9961 25.9588 56.8434 25.1801 56.4199 24.543C55.9968 23.9065 55.3379 23.4638 54.5884 23.3127L44.3967 21.2601C42.8377 20.9478 41.3159 21.9564 41.0013 23.517L40.002 28.4787C29.94 27.887 20.69 34.7891 18.6438 44.9478C17.5589 50.3333 18.6365 55.8193 21.6775 60.3949C24.1801 64.1599 27.7673 66.9344 31.9599 68.4047L30.8551 73.8894C30.5409 75.4503 31.5512 76.9701 33.1117 77.2847L43.3034 79.3379C43.4921 79.376 43.683 79.3949 43.8726 79.3949C44.4361 79.3949 44.9921 79.2293 45.4684 78.9128C46.1052 78.4897 46.5479 77.8308 46.6987 77.0813L47.5706 72.7532L72.9762 75.5399V82.8937C72.9762 84.4475 73.2418 85.9395 73.7238 87.3313L37.3568 138.487H34.1844C32.5922 138.487 31.3016 139.777 31.3016 141.37C31.3016 142.962 32.5922 144.252 34.1844 144.252H38.8379C38.8392 144.252 38.8405 144.253 38.8421 144.253C38.844 144.253 38.8456 144.252 38.8476 144.252H43.5055C45.0978 144.252 46.3884 142.962 46.3884 141.37C46.3884 140.069 45.5264 138.97 44.3428 138.611L77.058 92.5934C79.1656 94.6613 81.9414 96.0486 85.0283 96.3997V138.487H83.2506C81.6583 138.487 80.3678 139.778 80.3678 141.37C80.3678 142.962 81.6583 144.253 83.2506 144.253H92.5717C94.1639 144.253 95.4545 142.962 95.4545 141.37C95.4545 139.778 94.1639 138.487 92.5717 138.487H90.7939V96.179C93.4493 95.6034 95.8167 94.25 97.6473 92.3698L130.521 138.611C129.338 138.97 128.476 140.069 128.476 141.369C128.476 142.962 129.766 144.252 131.359 144.252H136.016C136.018 144.252 136.02 144.252 136.021 144.252C136.023 144.252 136.024 144.252 136.026 144.252H140.679C142.272 144.252 143.562 142.962 143.562 141.369C143.562 139.777 142.272 138.486 140.679 138.486H137.506L100.882 86.9697C101.287 85.682 101.507 84.3133 101.507 82.8937V78.6697L128.674 81.6499C128.78 81.6614 128.886 81.6675 128.991 81.6675C130.347 81.6672 131.541 80.7117 131.814 79.3536L132.248 77.2011L140.55 78.8734C140.743 78.9119 140.934 78.9308 141.123 78.9308C142.467 78.9308 143.67 77.9852 143.946 76.6165L146.329 64.7848C146.48 64.0353 146.327 63.2566 145.903 62.6195C145.481 61.983 144.822 61.5407 144.072 61.3895ZM26.4796 57.2033C24.2909 53.9105 23.5155 49.9627 24.2964 46.0866C25.0773 42.2101 27.3205 38.8699 30.6136 36.6812C33.0912 35.0345 35.9401 34.1885 38.8495 34.2026L33.114 62.6771C30.4256 61.5641 28.1264 59.6813 26.4796 57.2033ZM37.0765 72.2023L38.1413 66.9171C38.1413 66.9165 38.1413 66.9158 38.1416 66.9155C38.1419 66.9152 38.1416 66.9146 38.1416 66.9142L45.125 32.2436C45.125 32.243 45.1254 32.242 45.1257 32.2414C45.126 32.2407 45.1257 32.2398 45.126 32.2388L46.0844 27.4815L50.6238 28.3957L49.8013 32.4797C49.8013 32.4803 49.801 32.4806 49.801 32.4813L42.4392 69.0305C42.4389 69.0318 42.4389 69.0334 42.4386 69.035L41.6167 73.1161L37.0765 72.2023ZM54.8305 36.711L89.6552 47.0376L84.8207 71.0392L48.7138 67.0786L54.8305 36.711ZM95.7411 82.894C95.7411 87.2115 92.2286 90.724 87.9111 90.724H86.5722C82.2547 90.724 78.7425 87.2115 78.7425 82.894V76.1729L86.8432 77.0614C86.8441 77.0614 86.8451 77.0614 86.8464 77.0617L95.7415 78.0374V82.894H95.7411ZM138.863 72.652L133.386 71.5488L134.631 65.3694L140.108 66.4725L138.863 72.652Z" fill="#2A57B5"/>
<path d="M85.2034 81.8593C84.6649 82.3977 84.3574 83.1405 84.3574 83.8997C84.3574 84.6588 84.6649 85.4019 85.2034 85.9368C85.7383 86.475 86.4811 86.7825 87.2402 86.7825C87.9994 86.7825 88.7425 86.475 89.2806 85.9368C89.8155 85.4019 90.123 84.6588 90.123 83.8997C90.123 83.1405 89.8155 82.3977 89.2806 81.8593C88.7425 81.3243 87.9994 81.0168 87.2402 81.0168C86.4811 81.0168 85.7383 81.3243 85.2034 81.8593Z" fill="#2A57B5"/>
</svg>
