<svg width="439" height="251" viewBox="0 0 439 251" fill="none" xmlns="http://www.w3.org/2000/svg">
<rect opacity="0.9" x="0.807861" y="0.630371" width="437.5" height="249" fill="white" stroke="#E5E5E5"/>
<path d="M153.592 122.302V125.481H143.836V143.63H139.822V122.302H153.592ZM142.532 130.286H147.703C149.354 130.286 150.77 130.564 151.951 131.121C153.133 131.667 154.036 132.434 154.661 133.42C155.296 134.407 155.613 135.564 155.613 136.892C155.613 137.888 155.433 138.796 155.071 139.617C154.72 140.437 154.202 141.15 153.519 141.755C152.835 142.351 152.005 142.815 151.028 143.147C150.052 143.469 148.943 143.63 147.703 143.63H139.822V122.302H143.865V140.466H147.703C148.582 140.466 149.31 140.3 149.886 139.968C150.462 139.636 150.892 139.197 151.175 138.65C151.458 138.103 151.6 137.507 151.6 136.863C151.6 136.228 151.458 135.652 151.175 135.134C150.892 134.617 150.462 134.207 149.886 133.904C149.31 133.601 148.582 133.45 147.703 133.45H142.532V130.286ZM176.186 125.54L170.106 143.63H165.844L173.812 122.302H176.537L176.186 125.54ZM181.269 143.63L175.16 125.54L174.794 122.302H177.533L185.546 143.63H181.269ZM180.99 135.706V138.884H169.55V135.706H180.99ZM210.894 131.106V134.27H199.673V131.106H210.894ZM200.771 122.302V143.63H196.743V122.302H200.771ZM213.882 122.302V143.63H209.854V122.302H213.882ZM241.134 131.106V134.27H229.913V131.106H241.134ZM231.012 122.302V143.63H226.983V122.302H231.012ZM244.122 122.302V143.63H240.094V122.302H244.122ZM271.359 140.466V143.63H260.021V140.466H271.359ZM261.252 122.302V143.63H257.224V122.302H261.252ZM269.88 131.106V134.197H260.021V131.106H269.88ZM271.315 122.302V125.481H260.021V122.302H271.315ZM291.36 135.852H285.867V132.688H291.36C292.259 132.688 292.986 132.542 293.543 132.249C294.109 131.946 294.524 131.536 294.788 131.018C295.052 130.491 295.184 129.89 295.184 129.216C295.184 128.562 295.052 127.952 294.788 127.385C294.524 126.819 294.109 126.36 293.543 126.008C292.986 125.657 292.259 125.481 291.36 125.481H287.186V143.63H283.157V122.302H291.36C293.021 122.302 294.437 122.6 295.608 123.196C296.79 123.782 297.688 124.597 298.304 125.642C298.929 126.677 299.241 127.859 299.241 129.187C299.241 130.564 298.929 131.75 298.304 132.747C297.688 133.743 296.79 134.509 295.608 135.046C294.437 135.583 293.021 135.852 291.36 135.852Z" fill="#B4B4B4"/>
</svg>
