<svg width="439" height="251" viewBox="0 0 439 251" fill="none" xmlns="http://www.w3.org/2000/svg">
<rect opacity="0.9" x="1" y="1.30518" width="437.5" height="249" fill="#FAFCFF" stroke="#8DAAF5"/>
<path d="M153.784 122.977V126.156H144.028V144.305H140.014V122.977H153.784ZM142.724 130.96H147.895C149.546 130.96 150.962 131.239 152.143 131.795C153.325 132.342 154.228 133.109 154.853 134.095C155.488 135.082 155.805 136.239 155.805 137.567C155.805 138.563 155.625 139.471 155.263 140.292C154.912 141.112 154.394 141.825 153.711 142.43C153.027 143.026 152.197 143.49 151.22 143.822C150.244 144.144 149.135 144.305 147.895 144.305H140.014V122.977H144.057V141.141H147.895C148.774 141.141 149.502 140.975 150.078 140.643C150.654 140.311 151.084 139.872 151.367 139.325C151.65 138.778 151.792 138.182 151.792 137.538C151.792 136.903 151.65 136.327 151.367 135.809C151.084 135.292 150.654 134.881 150.078 134.579C149.502 134.276 148.774 134.125 147.895 134.125H142.724V130.96ZM176.378 126.214L170.299 144.305H166.036L174.005 122.977H176.729L176.378 126.214ZM181.461 144.305L175.352 126.214L174.986 122.977H177.725L185.738 144.305H181.461ZM181.182 136.38V139.559H169.742V136.38H181.182ZM211.086 131.781V134.945H199.865V131.781H211.086ZM200.964 122.977V144.305H196.935V122.977H200.964ZM214.074 122.977V144.305H210.046V122.977H214.074ZM241.326 131.781V134.945H230.105V131.781H241.326ZM231.204 122.977V144.305H227.176V122.977H231.204ZM244.314 122.977V144.305H240.286V122.977H244.314ZM271.552 141.141V144.305H260.214V141.141H271.552ZM261.444 122.977V144.305H257.416V122.977H261.444ZM270.072 131.781V134.872H260.214V131.781H270.072ZM271.508 122.977V126.156H260.214V122.977H271.508ZM291.552 136.527H286.059V133.363H291.552C292.451 133.363 293.178 133.216 293.735 132.923C294.302 132.621 294.717 132.21 294.98 131.693C295.244 131.166 295.376 130.565 295.376 129.891C295.376 129.237 295.244 128.626 294.98 128.06C294.717 127.494 294.302 127.035 293.735 126.683C293.178 126.332 292.451 126.156 291.552 126.156H287.378V144.305H283.349V122.977H291.552C293.213 122.977 294.629 123.275 295.801 123.871C296.982 124.457 297.881 125.272 298.496 126.317C299.121 127.352 299.433 128.534 299.433 129.862C299.433 131.239 299.121 132.425 298.496 133.421C297.881 134.417 296.982 135.184 295.801 135.721C294.629 136.258 293.213 136.527 291.552 136.527Z" fill="#C8D8F0"/>
</svg>
