<svg width="170" height="169" viewBox="0 0 170 169" fill="none" xmlns="http://www.w3.org/2000/svg">
<path d="M33.7645 26.3027H53.9019L58.7791 47.9941V76.8888C58.7791 83.4887 64.1805 88.8585 70.82 88.8585H71.1016L65.9359 96.9202L40.8074 111.482C39.894 112.011 39.3326 112.982 39.3326 114.033V124.66C39.3326 126.291 40.6625 127.613 42.3033 127.613C43.9441 127.613 45.274 126.291 45.274 124.66V115.73L68.389 102.335L81.5222 106.691V141.803H45.274V138.246C45.274 136.614 43.9441 135.292 42.3033 135.292C40.6625 135.292 39.3326 136.614 39.3326 138.246V144.756C39.3326 146.387 40.6625 147.709 42.3033 147.709H127.552C129.193 147.709 130.523 146.387 130.523 144.756V114.033C130.523 112.982 129.961 112.011 129.048 111.482L103.297 96.5592C103.276 96.5471 103.254 96.5382 103.233 96.5264L98.3198 88.8581H98.5344C105.174 88.8581 110.575 83.4887 110.575 76.8885V47.9928L115.452 26.3027H122.645V52.8979H121.036C119.395 52.8979 118.065 54.2199 118.065 55.851C118.065 57.4822 119.395 58.8042 121.036 58.8042H130.195C131.836 58.8042 133.166 57.4822 133.166 55.851C133.166 54.2199 131.836 52.8979 130.195 52.8979H128.586V26.3027H135.856C137.497 26.3027 138.827 24.9807 138.827 23.3496C138.827 21.7185 137.497 20.3965 135.856 20.3965H113.072H56.2818H33.7642C32.1233 20.3965 30.7935 21.7185 30.7935 23.3496C30.7935 24.9807 32.1237 26.3027 33.7645 26.3027ZM124.581 141.803H87.4636V106.835L101.308 102.243L124.581 115.73V141.803ZM96.8167 97.5065L84.7101 101.522L72.6041 97.5065L78.1458 88.8585H91.275L96.8167 97.5065ZM104.634 76.8888C104.634 80.232 101.898 82.9522 98.5344 82.9522H92.9049H76.5162H70.82C67.4569 82.9522 64.7205 80.232 64.7205 76.8888V50.6214H104.634V76.8888ZM109.364 26.3027L105.224 44.7151H64.13L59.9899 26.3027H109.364Z" fill="#2A57B5"/>
</svg>
