<svg width="66" height="66" viewBox="0 0 66 66" fill="none" xmlns="http://www.w3.org/2000/svg">
<path d="M21.1238 28.7843C21.7431 28.7843 22.2451 28.2823 22.2451 27.663C22.2451 27.0437 21.7431 26.5417 21.1238 26.5417C20.5045 26.5417 20.0024 27.0437 20.0024 27.663C20.0024 28.2823 20.5045 28.7843 21.1238 28.7843Z" fill="#1C48A3"/>
<path d="M25.6091 26.5416C26.2284 26.5416 26.7305 26.0396 26.7305 25.4203C26.7305 24.801 26.2284 24.299 25.6091 24.299C24.9898 24.299 24.4878 24.801 24.4878 25.4203C24.4878 26.0396 24.9898 26.5416 25.6091 26.5416Z" fill="#1C48A3"/>
<path d="M21.1238 24.2989C21.7431 24.2989 22.2451 23.7969 22.2451 23.1776C22.2451 22.5583 21.7431 22.0562 21.1238 22.0562C20.5045 22.0562 20.0024 22.5583 20.0024 23.1776C20.0024 23.7969 20.5045 24.2989 21.1238 24.2989Z" fill="#1C48A3"/>
<path d="M61.4922 0.750641H36.8225C35.6333 0.751976 34.4932 1.22497 33.6524 2.06585C32.8115 2.90674 32.3385 4.04684 32.3372 5.23603V7.77784C29.2365 6.10529 25.768 5.23171 22.245 5.23603C10.4971 5.23603 0.939453 14.7937 0.939453 26.5416C0.939453 38.2895 10.4971 47.8472 22.245 47.8472C26.5391 47.8519 30.7332 46.5517 34.2715 44.1187L54.7921 64.6393C55.5282 65.3754 56.5265 65.7889 57.5674 65.7889C58.6084 65.7889 59.6067 65.3754 60.3428 64.6393C61.0788 63.9033 61.4924 62.905 61.4924 61.864C61.4924 60.8231 61.0788 59.8247 60.3428 59.0887L39.8221 38.568C42.2552 35.0298 43.5554 30.8357 43.5506 26.5416C43.5506 26.1688 43.54 25.7942 43.5206 25.4203H61.4922C62.6813 25.4189 63.8214 24.9459 64.6623 24.105C65.5032 23.2642 65.9762 22.1241 65.9775 20.9349V5.23603C65.9762 4.04684 65.5032 2.90674 64.6623 2.06585C63.8214 1.22497 62.6813 0.751976 61.4922 0.750641ZM32.3372 25.4203H30.013C29.8266 24.1223 29.3163 22.8921 28.5292 21.8433L29.766 20.6065L28.1802 19.0206L26.9433 20.2574C25.8945 19.4703 24.6644 18.96 23.3664 18.7736V15.3281H21.1237V18.7736C19.8257 18.96 18.5955 19.4703 17.5467 20.2574L16.3099 19.0206L14.724 20.6065L15.9609 21.8433C15.1738 22.8921 14.6635 24.1223 14.477 25.4203H11.0316V27.663H14.477C14.6635 28.9609 15.1738 30.1911 15.9609 31.2399L14.724 32.4767L16.3099 34.0626L17.5467 32.8258C18.5955 33.6129 19.8257 34.1232 21.1237 34.3096V37.7551H23.3664V34.3096C24.6644 34.1232 25.8945 33.6129 26.9433 32.8258L28.1802 34.0626L29.766 32.4767L28.5292 31.2399C29.3163 30.1911 29.8266 28.9609 30.013 27.663H32.3372V28.7843C32.3098 29.6522 33.3727 30.2219 34.0806 29.7173L36.7557 27.9339C36.4408 31.2191 35.0207 34.3003 32.7274 36.6737C30.4341 39.047 27.4034 40.5721 24.1309 40.9994C20.8584 41.4268 17.5378 40.7311 14.7119 39.0263C11.8861 37.3214 9.72229 34.7082 8.57438 31.614C7.42647 28.5198 7.36236 25.1277 8.39255 21.9923C9.42273 18.8569 11.4862 16.1638 14.2457 14.3534C17.0051 12.543 20.2971 11.7224 23.5834 12.0258C26.8697 12.3292 29.9558 13.7387 32.3372 16.0237V25.4203ZM22.245 32.1483C21.1361 32.1483 20.0521 31.8195 19.1301 31.2034C18.2081 30.5874 17.4894 29.7117 17.0651 28.6872C16.6407 27.6627 16.5297 26.5354 16.746 25.4478C16.9624 24.3602 17.4964 23.3612 18.2805 22.577C19.0646 21.7929 20.0636 21.2589 21.1512 21.0426C22.2388 20.8263 23.3661 20.9373 24.3906 21.3617C25.4151 21.786 26.2908 22.5047 26.9069 23.4267C27.5229 24.3487 27.8518 25.4327 27.8518 26.5416C27.8501 28.0281 27.2589 29.4532 26.2077 30.5043C25.1566 31.5554 23.7315 32.1467 22.245 32.1483ZM39.7905 46.4651L42.1691 44.0865L45.0685 46.9861L42.69 49.3646L39.7905 46.4651ZM59.2495 61.864C59.2493 62.1966 59.1506 62.5216 58.9657 62.7981C58.7809 63.0746 58.5182 63.29 58.211 63.4173C57.9037 63.5445 57.5656 63.5778 57.2394 63.513C56.9133 63.4481 56.6136 63.288 56.3784 63.0529L44.2758 50.9505L46.6544 48.572L58.7566 60.6751C58.9133 60.8308 59.0375 61.0161 59.1221 61.2202C59.2067 61.4243 59.25 61.6431 59.2495 61.864ZM40.5832 42.5006L38.2046 44.8793L36.0667 42.7414C36.9206 42.0117 37.716 41.2162 38.4455 40.3622L40.5832 42.5006ZM41.3079 26.5416C41.3079 37.0528 32.7564 45.6045 22.245 45.6045C11.7337 45.6045 3.18215 37.0528 3.18215 26.5416C3.18215 16.0304 11.7337 7.47872 22.245 7.47872C25.8141 7.47305 29.3123 8.47509 32.3372 10.3695V13.0805C29.3056 10.8064 25.595 9.62247 21.8065 9.72053C18.0181 9.81858 14.3737 11.1929 11.4638 13.6208C8.55394 16.0487 6.54906 19.388 5.77399 23.0976C4.99892 26.8072 5.49906 30.6699 7.19339 34.0598C8.88772 37.4497 11.677 40.1682 15.1092 41.7749C18.5415 43.3816 22.4157 43.7824 26.1042 42.9123C29.7927 42.0423 33.0794 39.9523 35.4318 36.9811C37.7842 34.0098 39.0645 30.3313 39.0652 26.5416C39.0652 26.4921 39.0638 26.4443 39.0634 26.3954L40.5261 25.4203H41.2746C41.2963 25.7939 41.3079 26.1686 41.3079 26.5416ZM63.7348 20.9349C63.7341 21.5295 63.4976 22.0995 63.0772 22.5199C62.6568 22.9404 62.0867 23.1769 61.4922 23.1776H40.1866C39.9652 23.1776 39.7488 23.2431 39.5646 23.366L34.5798 26.6891V5.23603C34.5805 4.64144 34.8171 4.07141 35.2375 3.65098C35.6579 3.23055 36.228 2.99404 36.8225 2.99333H61.4922C62.0867 2.99404 62.6568 3.23055 63.0772 3.65098C63.4976 4.07141 63.7341 4.64144 63.7348 5.23603V20.9349Z" fill="#1C48A3"/>
<path d="M44.6719 7.47876H37.9438V9.72145H44.6719V7.47876Z" fill="#1C48A3"/>
<path d="M60.3707 7.47876H46.9146V9.72145H60.3707V7.47876Z" fill="#1C48A3"/>
<path d="M55.8854 11.9641H37.9438V14.2068H55.8854V11.9641Z" fill="#1C48A3"/>
<path d="M46.9146 16.4496H37.9438V18.6922H46.9146V16.4496Z" fill="#1C48A3"/>
<path d="M60.3707 16.4496H49.1572V18.6922H60.3707V16.4496Z" fill="#1C48A3"/>
</svg>
