<svg width="79" height="80" viewBox="0 0 79 80" fill="none" xmlns="http://www.w3.org/2000/svg">
<path d="M14.5438 44.8949C14.863 48.1508 16.3811 51.1718 18.8032 53.3709C21.2254 55.57 24.3785 56.7902 27.65 56.7943H30.2834V60.7444C30.2834 61.0188 30.3692 61.2863 30.5286 61.5096L36.8667 70.3829V77.861C36.8667 78.2102 37.0054 78.5451 37.2524 78.7921C37.4993 79.039 37.8342 79.1777 38.1834 79.1777H44.7667C45.1159 79.1777 45.4508 79.039 45.6978 78.7921C45.9447 78.5451 46.0834 78.2102 46.0834 77.861V67.3277H59.2501C59.4545 67.3277 59.6561 67.2801 59.839 67.1887C60.0218 67.0973 60.1808 66.9645 60.3035 66.801L64.2535 61.5343C64.4244 61.3064 64.5167 61.0292 64.5168 60.7444V56.7091C67.0606 56.3857 69.3995 55.1466 71.0959 53.2236C72.7923 51.3005 73.7299 48.8253 73.7334 46.261V37.0443H71.1001V46.261C71.0975 48.1271 70.4354 49.9322 69.2307 51.3574C68.0261 52.7825 66.3564 53.736 64.5168 54.0492V50.7563L68.0812 47.192C68.3281 46.9451 68.4668 46.6102 68.4668 46.261V39.6777H65.8334V45.7156L62.269 49.28C62.0221 49.5269 61.8834 49.8618 61.8834 50.211V54.161H59.2501V40.9943H56.6168V44.5054L53.3251 48.8943H47.4001V51.5277H53.9834C54.1878 51.5277 54.3894 51.4801 54.5723 51.3886C54.7551 51.2972 54.9142 51.1645 55.0368 51.001L56.6168 48.8944V54.161H32.9167L34.8917 51.5277H39.5001C39.7168 51.5277 39.9302 51.4742 40.1213 51.3719C40.3124 51.2696 40.4753 51.1217 40.5956 50.9413L42.838 47.5777H47.4001V44.9443H42.1334C41.9166 44.9443 41.7032 44.9978 41.5121 45.1001C41.321 45.2024 41.1581 45.3503 41.0379 45.5307L38.7954 48.8943H34.2334C34.029 48.8943 33.8273 48.9419 33.6445 49.0333C33.4617 49.1247 33.3026 49.2575 33.18 49.421L29.625 54.161H27.65C24.9495 54.1578 22.353 53.1188 20.3958 51.258C18.4386 49.3972 17.2697 46.8566 17.1302 44.1596L19.75 41.5398L22.3834 44.1731V48.8943C22.3834 49.1111 22.4369 49.3245 22.5392 49.5156C22.6414 49.7067 22.7893 49.8696 22.9697 49.9898L26.9197 52.6232L28.3804 50.4322L25.0167 48.1897V44.9443H28.9667V42.311H24.2454L21.6121 39.6777L23.634 37.6559C24.2438 37.0426 24.9693 36.5565 25.7683 36.2255C26.5673 35.8945 27.4241 35.7253 28.2889 35.7276H37.0632L33.4109 38.6495C33.2567 38.7728 33.1322 38.9293 33.0467 39.1073C32.9611 39.2852 32.9167 39.4802 32.9167 39.6777V44.9443H35.5501V40.3105L41.2786 35.7276H44.7667V33.0943H39.5001V22.561H36.8667V27.8276H32.3047L30.2834 24.7957V20.473L33.8478 16.9086C34.0947 16.6617 34.2334 16.3268 34.2334 15.9776V13.3443H40.8167V10.7109H18.4334C13.5462 10.7165 8.86085 12.6603 5.40512 16.1161C1.94939 19.5718 0.00553486 24.2572 0 29.1443C0.00478445 33.1159 1.50314 36.9405 4.1975 39.8584C6.89186 42.7764 10.5851 44.5742 14.5438 44.8949ZM43.4501 76.5444H39.5001V69.961C39.5 69.6866 39.4143 69.4191 39.2548 69.1957L32.9167 60.3224V56.7943H38.1834V60.7444C38.1834 61.0292 38.2758 61.3064 38.4467 61.5343L42.3967 66.801C42.5193 66.9645 42.6784 67.0973 42.8612 67.1887C43.044 67.2801 43.2456 67.3277 43.4501 67.3277V76.5444ZM58.5918 64.6944H44.1084L40.8167 60.3055V56.7943H61.8834V60.3055L58.5918 64.6944ZM2.68867 27.8276H7.90001C8.24924 27.8276 8.58416 27.6889 8.8311 27.442L12.7811 23.492L10.9189 21.6299L7.35467 25.1943H3.13328C4.01344 21.8048 5.99278 18.803 8.76137 16.6587C11.53 14.5144 14.9315 13.3487 18.4334 13.3443H22.6912L20.3213 17.2943H15.8V19.9276H21.0667C21.2941 19.9276 21.5176 19.8687 21.7154 19.7567C21.9133 19.6447 22.0788 19.4834 22.1958 19.2884L25.7623 13.3443H31.6V15.4323L28.0356 18.9966C27.7887 19.2435 27.65 19.5784 27.65 19.9276V23.8776H17.1167V26.511H28.2621L30.5045 29.8746C30.6248 30.055 30.7877 30.2029 30.9788 30.3052C31.1699 30.4075 31.3833 30.461 31.6 30.461H36.8667V33.0943H28.2889C26.4643 33.0895 24.6799 33.6303 23.1649 34.6471L20.6811 32.1633C20.4342 31.9164 20.0993 31.7776 19.75 31.7776H15.8V34.411H19.2047L21.1796 36.386L15.9092 41.6564L11.85 36.5825V31.7776H9.21668V37.0443C9.21668 37.3433 9.31843 37.6334 9.50518 37.8668L12.7772 41.9568C9.89211 41.2725 7.32186 39.6359 5.48135 37.3112C3.64085 34.9865 2.63751 32.1094 2.63334 29.1443C2.63334 28.7009 2.65266 28.2619 2.68867 27.8276Z" fill="#1C48A3"/>
<path d="M42.1333 39.677V42.3103H50.0333C50.2377 42.3103 50.4393 42.2627 50.6222 42.1713C50.805 42.0799 50.9641 41.9471 51.0867 41.7836L53.0617 39.1503L50.9549 37.5703L49.375 39.677H42.1333Z" fill="#1C48A3"/>
<path d="M77.5865 11.5204C77.1894 10.5691 76.7132 9.65287 76.1629 8.78125L73.9365 10.1873C74.4079 10.934 74.8158 11.719 75.156 12.534L77.5865 11.5204Z" fill="#1C48A3"/>
<path d="M60.5667 37.044C63.2265 37.042 65.8544 36.4648 68.2703 35.352C70.6861 34.2392 72.8328 32.6172 74.5631 30.5971C76.2934 28.577 77.5664 26.2066 78.2948 23.6485C79.0232 21.0903 79.1898 18.4049 78.7832 15.7763L76.1807 16.1783C76.3046 16.9832 76.3668 17.7963 76.3667 18.6107C76.3667 21.7356 75.44 24.7904 73.7039 27.3887C71.9678 29.987 69.5001 32.0121 66.6131 33.208C63.726 34.4039 60.5491 34.7167 57.4842 34.1071C54.4193 33.4974 51.604 31.9926 49.3944 29.783C47.1847 27.5733 45.6799 24.758 45.0702 21.6931C44.4606 18.6282 44.7735 15.4513 45.9693 12.5643C47.1652 9.67718 49.1903 7.20956 51.7886 5.47343C54.3869 3.7373 57.4417 2.81064 60.5667 2.81064C63.1056 2.80228 65.6084 3.41293 67.8582 4.58972L69.0752 2.25453C66.597 0.965469 63.8582 0.256451 61.0658 0.181037C58.2735 0.105622 55.5004 0.665783 52.9563 1.8192C50.4121 2.97263 48.1633 4.68914 46.3798 6.83909C44.5963 8.98903 43.3247 11.5162 42.6611 14.2296C41.9975 16.9431 41.9591 19.7718 42.5491 22.5022C43.139 25.2326 44.3417 27.7933 46.0663 29.9907C47.7909 32.1882 49.9924 33.965 52.5044 35.1869C55.0164 36.4088 57.7733 37.0438 60.5667 37.044Z" fill="#1C48A3"/>
<path d="M60.5669 21.2442C62.0213 21.2442 63.2003 20.0652 63.2003 18.6109C63.2003 17.1565 62.0213 15.9775 60.5669 15.9775C59.1126 15.9775 57.9336 17.1565 57.9336 18.6109C57.9336 20.0652 59.1126 21.2442 60.5669 21.2442Z" fill="#1C48A3"/>
<path d="M69.0304 12.2036L67.8027 12.9124C67.352 12.3413 66.8358 11.8251 66.2647 11.3744L66.9735 10.1467C67.2759 10.3213 67.6353 10.3686 67.9726 10.2782C68.3099 10.1879 68.5975 9.96718 68.7721 9.66476C68.9467 9.36234 68.994 9.00295 68.9036 8.66565C68.8132 8.32834 68.5925 8.04076 68.2901 7.86616L66.0097 6.54949C65.86 6.46303 65.6947 6.40692 65.5233 6.38435C65.3518 6.36178 65.1776 6.3732 65.0106 6.41795C64.8436 6.4627 64.687 6.53991 64.5499 6.64517C64.4127 6.75043 64.2976 6.88168 64.2111 7.03143C64.1247 7.18117 64.0686 7.34647 64.046 7.5179C64.0234 7.68933 64.0348 7.86352 64.0796 8.03054C64.1244 8.19756 64.2016 8.35412 64.3068 8.4913C64.4121 8.62848 64.5433 8.74358 64.6931 8.83003L63.9862 10.0543C63.3102 9.78284 62.6043 9.59319 61.8833 9.4894V8.07718C62.2325 8.07718 62.5674 7.93846 62.8143 7.69154C63.0612 7.44462 63.1999 7.10972 63.1999 6.76052C63.1999 6.41131 63.0612 6.07641 62.8143 5.82949C62.5674 5.58257 62.2325 5.44385 61.8833 5.44385H59.2499C58.9007 5.44385 58.5658 5.58257 58.3189 5.82949C58.072 6.07641 57.9333 6.41131 57.9333 6.76052C57.9333 7.10972 58.072 7.44462 58.3189 7.69154C58.5658 7.93846 58.9007 8.07718 59.2499 8.07718V9.4894C58.5289 9.59319 57.8229 9.78284 57.147 10.0543L56.4401 8.83003C56.5898 8.74357 56.7211 8.62847 56.8264 8.49129C56.9316 8.35412 57.0088 8.19755 57.0536 8.03054C57.0983 7.86352 57.1097 7.68932 57.0872 7.5179C57.0646 7.34647 57.0085 7.18116 56.922 7.03142C56.8356 6.88168 56.7205 6.75043 56.5833 6.64517C56.4461 6.53991 56.2896 6.4627 56.1226 6.41795C55.9555 6.3732 55.7813 6.36178 55.6099 6.38435C55.4385 6.40692 55.2732 6.46303 55.1234 6.54948L52.8431 7.86615C52.6933 7.9526 52.5621 8.06771 52.4568 8.20488C52.3515 8.34206 52.2743 8.49862 52.2296 8.66564C52.1848 8.83266 52.1734 9.00685 52.196 9.17828C52.2185 9.34971 52.2747 9.51501 52.3611 9.66476C52.4476 9.8145 52.5627 9.94575 52.6998 10.051C52.837 10.1563 52.9936 10.2335 53.1606 10.2782C53.3276 10.323 53.5018 10.3344 53.6732 10.3118C53.8447 10.2893 54.01 10.2331 54.1597 10.1467L54.8685 11.3744C54.2974 11.8251 53.7812 12.3413 53.3305 12.9124L52.1027 12.2036C52.1892 12.0538 52.2453 11.8885 52.2679 11.7171C52.2905 11.5457 52.279 11.3715 52.2343 11.2045C52.1896 11.0375 52.1124 10.8809 52.0071 10.7438C51.9019 10.6066 51.7706 10.4915 51.6209 10.405C51.4711 10.3186 51.3059 10.2625 51.1344 10.2399C50.963 10.2173 50.7888 10.2288 50.6218 10.2735C50.4548 10.3182 50.2983 10.3954 50.1611 10.5007C50.0239 10.6059 49.9088 10.7372 49.8224 10.8869L48.5057 13.1675C48.4192 13.3172 48.3631 13.4825 48.3406 13.6539C48.318 13.8253 48.3294 13.9995 48.3741 14.1665C48.4189 14.3335 48.4961 14.4901 48.6013 14.6273C48.7066 14.7644 48.8378 14.8795 48.9876 14.966C49.1373 15.0524 49.3026 15.1086 49.474 15.1311C49.6454 15.1537 49.8196 15.1423 49.9866 15.0975C50.1536 15.0528 50.3102 14.9756 50.4474 14.8703C50.5845 14.7651 50.6996 14.6339 50.7861 14.4841V14.4841L52.0103 15.1909C51.7389 15.8669 51.5492 16.5729 51.4455 17.2939H50.0332C50.0332 16.9447 49.8945 16.6098 49.6476 16.3628C49.4007 16.1159 49.0658 15.9772 48.7166 15.9772C48.3674 15.9772 48.0325 16.1159 47.7855 16.3628C47.5386 16.6098 47.3999 16.9447 47.3999 17.2939V19.9272C47.3999 20.2764 47.5386 20.6113 47.7855 20.8582C48.0325 21.1052 48.3674 21.2439 48.7166 21.2439C49.0658 21.2439 49.4007 21.1052 49.6476 20.8582C49.8945 20.6113 50.0332 20.2764 50.0332 19.9272H51.4455C51.5492 20.6482 51.7389 21.3542 52.0103 22.0301L50.7861 22.737V22.7369C50.6996 22.5872 50.5845 22.456 50.4474 22.3507C50.3102 22.2455 50.1536 22.1683 49.9866 22.1235C49.8196 22.0788 49.6454 22.0674 49.474 22.0899C49.3026 22.1125 49.1373 22.1686 48.9876 22.2551C48.8378 22.3415 48.7066 22.4566 48.6013 22.5938C48.4961 22.731 48.4189 22.8875 48.3741 23.0545C48.3294 23.2216 48.318 23.3957 48.3406 23.5672C48.3631 23.7386 48.4192 23.9039 48.5057 24.0536L49.8224 26.3341C49.9088 26.4839 50.0239 26.6151 50.1611 26.7204C50.2983 26.8256 50.4548 26.9028 50.6218 26.9476C50.7888 26.9923 50.963 27.0037 51.1344 26.9812C51.3059 26.9586 51.4711 26.9025 51.6209 26.816C51.7706 26.7296 51.9019 26.6145 52.0071 26.4773C52.1124 26.3401 52.1896 26.1836 52.2343 26.0166C52.279 25.8495 52.2905 25.6754 52.2679 25.5039C52.2453 25.3325 52.1892 25.1672 52.1027 25.0175L53.3305 24.3087C53.7812 24.8798 54.2974 25.396 54.8685 25.8467L54.1597 27.0744C53.8573 26.8998 53.4979 26.8525 53.1606 26.9428C52.8233 27.0332 52.5357 27.2539 52.3611 27.5563C52.1865 27.8587 52.1392 28.2181 52.2296 28.5554C52.32 28.8927 52.5406 29.1803 52.8431 29.3549L55.1234 30.6716C55.2732 30.758 55.4385 30.8141 55.6099 30.8367C55.7813 30.8593 55.9555 30.8479 56.1226 30.8031C56.2896 30.7584 56.4461 30.6812 56.5833 30.5759C56.7205 30.4706 56.8356 30.3394 56.922 30.1896C57.0085 30.0399 57.0646 29.8746 57.0872 29.7032C57.1097 29.5317 57.0983 29.3575 57.0536 29.1905C57.0088 29.0235 56.9316 28.8669 56.8264 28.7298C56.7211 28.5926 56.5898 28.4775 56.4401 28.391L57.147 27.1667C57.8229 27.4382 58.5289 27.6279 59.2499 27.7317V29.1439C58.9007 29.1439 58.5658 29.2826 58.3189 29.5295C58.072 29.7764 57.9333 30.1113 57.9333 30.4605C57.9333 30.8098 58.072 31.1447 58.3189 31.3916C58.5658 31.6385 58.9007 31.7772 59.2499 31.7772H61.8833C62.2325 31.7772 62.5674 31.6385 62.8143 31.3916C63.0612 31.1447 63.1999 30.8098 63.1999 30.4605C63.1999 30.1113 63.0612 29.7764 62.8143 29.5295C62.5674 29.2826 62.2325 29.1439 61.8833 29.1439V27.7317C62.6043 27.6279 63.3102 27.4382 63.9862 27.1667L64.6931 28.391C64.3907 28.5656 64.17 28.8532 64.0796 29.1905C63.9892 29.5278 64.0365 29.8872 64.2111 30.1896C64.3857 30.4921 64.6733 30.7127 65.0106 30.8031C65.3479 30.8935 65.7073 30.8462 66.0097 30.6716L68.2901 29.3549C68.4399 29.2685 68.5711 29.1534 68.6764 29.0162C68.7816 28.879 68.8588 28.7224 68.9036 28.5554C68.9483 28.3884 68.9598 28.2142 68.9372 28.0428C68.9146 27.8714 68.8585 27.7061 68.7721 27.5563C68.6856 27.4066 68.5705 27.2753 68.4333 27.1701C68.2962 27.0648 68.1396 26.9876 67.9726 26.9428C67.8055 26.8981 67.6314 26.8867 67.4599 26.9092C67.2885 26.9318 67.1232 26.9879 66.9735 27.0744L66.2647 25.8467C66.8358 25.396 67.352 24.8798 67.8027 24.3087L69.0304 25.0175C68.944 25.1672 68.8879 25.3325 68.8653 25.5039C68.8427 25.6754 68.8541 25.8496 68.8989 26.0166C68.9436 26.1836 69.0208 26.3401 69.1261 26.4773C69.2313 26.6145 69.3626 26.7296 69.5123 26.816C69.662 26.9025 69.8273 26.9586 69.9987 26.9812C70.1702 27.0037 70.3443 26.9923 70.5113 26.9476C70.6784 26.9028 70.8349 26.8256 70.9721 26.7204C71.1093 26.6151 71.2244 26.4839 71.3108 26.3342L72.6275 24.0536C72.7139 23.9039 72.77 23.7386 72.7926 23.5672C72.8152 23.3957 72.8038 23.2216 72.759 23.0546C72.7143 22.8875 72.6371 22.731 72.5318 22.5938C72.4266 22.4566 72.2954 22.3415 72.1456 22.2551C71.9959 22.1686 71.8306 22.1125 71.6592 22.0899C71.4878 22.0674 71.3136 22.0788 71.1466 22.1235C70.9796 22.1683 70.823 22.2455 70.6858 22.3507C70.5486 22.456 70.4335 22.5872 70.3471 22.7369V22.737L69.1228 22.0301C69.3943 21.3542 69.5839 20.6482 69.6877 19.9272H71.0999C71.0999 20.2764 71.2387 20.6113 71.4856 20.8582C71.7325 21.1052 72.0674 21.2439 72.4166 21.2439C72.7658 21.2439 73.1007 21.1052 73.3476 20.8582C73.5946 20.6113 73.7333 20.2764 73.7333 19.9272V17.2939C73.7333 16.9447 73.5946 16.6098 73.3476 16.3628C73.1007 16.1159 72.7658 15.9772 72.4166 15.9772C72.0674 15.9772 71.7325 16.1159 71.4856 16.3628C71.2387 16.6098 71.0999 16.9447 71.0999 17.2939H69.6877C69.5839 16.5729 69.3943 15.8669 69.1228 15.1909L70.3471 14.4841V14.4841C70.4335 14.6339 70.5486 14.7651 70.6858 14.8703C70.823 14.9756 70.9796 15.0528 71.1466 15.0975C71.3136 15.1423 71.4878 15.1537 71.6592 15.1311C71.8306 15.1086 71.9959 15.0524 72.1456 14.966C72.2954 14.8795 72.4266 14.7644 72.5318 14.6273C72.6371 14.4901 72.7143 14.3335 72.759 14.1665C72.8038 13.9995 72.8152 13.8253 72.7926 13.6539C72.77 13.4825 72.7139 13.3172 72.6275 13.1675L71.3108 10.8869C71.2244 10.7372 71.1093 10.6059 70.9721 10.5007C70.8349 10.3954 70.6784 10.3182 70.5113 10.2735C70.3443 10.2288 70.1702 10.2173 69.9987 10.2399C69.8273 10.2625 69.662 10.3186 69.5123 10.4051C69.3626 10.4915 69.2313 10.6066 69.1261 10.7438C69.0208 10.8809 68.9436 11.0375 68.8989 11.2045C68.8541 11.3715 68.8427 11.5457 68.8653 11.7171C68.8879 11.8885 68.944 12.0538 69.0304 12.2036ZM67.1499 18.6105C67.1499 19.9126 66.7638 21.1854 66.0404 22.268C65.3171 23.3507 64.2889 24.1945 63.0859 24.6927C61.883 25.191 60.5593 25.3214 59.2822 25.0674C58.0052 24.8134 56.8322 24.1864 55.9115 23.2657C54.9908 22.345 54.3638 21.1719 54.1097 19.8949C53.8557 18.6178 53.9861 17.2941 54.4844 16.0912C54.9827 14.8882 55.8265 13.8601 56.9091 13.1367C57.9917 12.4133 59.2645 12.0272 60.5666 12.0272C62.312 12.0292 63.9853 12.7234 65.2195 13.9576C66.4537 15.1918 67.1479 16.8651 67.1499 18.6105Z" fill="#1C48A3"/>
</svg>
