<svg width="67" height="66" viewBox="0 0 67 66" fill="none" xmlns="http://www.w3.org/2000/svg">
<path d="M23.3258 19.8646L21.3867 18.744C21.9321 17.3026 21.9321 15.7115 21.3867 14.2701L23.3258 13.1494L23.8615 14.0772L25.7181 13.0059L23.5754 9.29472L21.7188 10.3661L22.2545 11.2939L20.3185 12.4113C19.3348 11.2256 17.9583 10.4322 16.4392 10.1754V7.93626H17.5105V5.79356H13.2252V7.93626H14.2965V10.1754C12.7774 10.4322 11.4009 11.2256 10.4172 12.4113L8.48124 11.2939L9.01691 10.3661L7.16027 9.29472L5.01758 13.0059L6.87422 14.0772L7.40989 13.1494L9.34903 14.2701C8.80361 15.7115 8.80361 17.3026 9.34903 18.744L7.40989 19.8646L6.87422 18.9368L5.01758 20.0082L7.16027 23.7193L9.01691 22.648L8.48124 21.7202L10.4172 20.6028C11.4009 21.7885 12.7774 22.5818 14.2965 22.8387V25.0778H13.2252V27.2205H17.5105V25.0778H16.4392V22.8387C17.9583 22.5818 19.3348 21.7885 20.3185 20.6028L22.2545 21.7202L21.7188 22.648L23.5754 23.7193L25.7181 20.0082L23.8615 18.9368L23.3258 19.8646ZM15.3679 20.7924C14.5203 20.7924 13.6918 20.5411 12.987 20.0702C12.2823 19.5993 11.733 18.93 11.4087 18.147C11.0843 17.3639 10.9995 16.5023 11.1648 15.671C11.3302 14.8397 11.7383 14.0761 12.3376 13.4768C12.937 12.8775 13.7005 12.4693 14.5318 12.304C15.3631 12.1386 16.2247 12.2235 17.0078 12.5478C17.7909 12.8722 18.4601 13.4215 18.931 14.1262C19.4019 14.8309 19.6532 15.6595 19.6532 16.507C19.6532 17.6436 19.2017 18.7336 18.3981 19.5373C17.5944 20.3409 16.5044 20.7924 15.3679 20.7924Z" fill="#1C48A3"/>
<path d="M15.368 1.50824C12.4015 1.50824 9.50163 2.38791 7.03508 4.036C4.56853 5.6841 2.64609 8.0266 1.51087 10.7673C0.375639 13.508 0.0786122 16.5237 0.657346 19.4332C1.23608 22.3427 2.66458 25.0152 4.76221 27.1129C6.85983 29.2105 9.53237 30.639 12.4419 31.2177C15.3514 31.7965 18.3671 31.4994 21.1078 30.3642C23.8485 29.229 26.191 27.3065 27.8391 24.84C29.4872 22.3735 30.3668 19.4736 30.3668 16.5071C30.3626 12.5305 28.781 8.71791 25.9691 5.906C23.1572 3.09409 19.3446 1.51249 15.368 1.50824ZM15.368 29.3632C12.8253 29.3632 10.3397 28.6092 8.2255 27.1966C6.11131 25.7839 4.46351 23.7761 3.49046 21.4269C2.5174 19.0778 2.26281 16.4928 2.75887 13.999C3.25493 11.5051 4.47935 9.21438 6.27732 7.41641C8.07529 5.61845 10.366 4.39402 12.8599 3.89796C15.3537 3.4019 17.9387 3.6565 20.2878 4.62955C22.637 5.6026 24.6448 7.25041 26.0575 9.36459C27.4701 11.4788 28.2241 13.9644 28.2241 16.5071C28.2205 19.9156 26.8648 23.1835 24.4546 25.5937C22.0444 28.0039 18.7765 29.3596 15.368 29.3632Z" fill="#1C48A3"/>
<path d="M66.7927 39.0053C66.7903 38.178 66.5954 37.3627 66.2236 36.6238C65.8517 35.8848 65.313 35.2425 64.65 34.7477V29.3632C64.65 29.079 64.537 28.8066 64.3361 28.6057L54.3801 18.6497L58.9794 14.0504C59.1802 13.8495 59.2931 13.577 59.2931 13.293C59.2931 13.0089 59.1802 12.7364 58.9794 12.5355L58.6655 12.2216L61.436 9.45111L62.8212 10.8364L64.3361 9.32147L55.7653 0.750702L54.2505 2.26559L55.6357 3.65084L52.8652 6.42134L52.5513 6.10743C52.3504 5.90659 52.0779 5.79376 51.7939 5.79376C51.5098 5.79376 51.2373 5.90659 51.0364 6.10743L37.1089 20.0349C36.908 20.2358 36.7951 20.5083 36.795 20.7924V29.3632H35.7237C35.4395 29.3632 35.167 29.476 34.9661 29.6769C34.7652 29.8779 34.6523 30.1504 34.6523 30.4345V41.148C34.6523 41.4321 34.7652 41.7046 34.9661 41.9055C35.167 42.1064 35.4395 42.2193 35.7237 42.2193H41.0804V45.4333C41.0804 45.7175 41.1933 45.99 41.3942 46.1909C41.5951 46.3918 41.8676 46.5047 42.1517 46.5047H46.4371C46.7213 46.5047 46.9938 46.3918 47.1947 46.1909C47.3956 45.99 47.5085 45.7175 47.5085 45.4333V42.2193H52.8652C53.1493 42.2193 53.4218 42.1064 53.6228 41.9055C53.8237 41.7046 53.9366 41.4321 53.9366 41.148V30.4345C53.9366 30.1504 53.8237 29.8779 53.6228 29.6769C53.4218 29.476 53.1493 29.3632 52.8652 29.3632H51.7939V25.5213L57.1506 30.878V35.8244C56.4555 36.7392 56.0791 37.8564 56.0791 39.0053C56.0791 40.1541 56.4555 41.2714 57.1506 42.1861V48.6474H33.581V50.7901H57.1506V58.2895H51.7939V55.0755C51.7939 54.7913 51.681 54.5188 51.4801 54.3179C51.2792 54.117 51.0066 54.0041 50.7225 54.0041H37.8664C37.5822 54.0041 37.3097 54.117 37.1088 54.3179C36.9079 54.5188 36.795 54.7913 36.795 55.0755V58.2895H29.2956C28.4432 58.2895 27.6257 58.6281 27.0229 59.2309C26.4202 59.8336 26.0815 60.6511 26.0815 61.5035V64.7176C26.0815 65.0017 26.1944 65.2742 26.3953 65.4751C26.5962 65.6761 26.8688 65.7889 27.1529 65.7889H59.2933C60.7135 65.7872 62.075 65.2223 63.0792 64.2181C64.0834 63.2139 64.6483 61.8524 64.65 60.4322V43.2628C65.313 42.768 65.8517 42.1257 66.2236 41.3868C66.5954 40.6478 66.7903 39.8325 66.7927 39.0053ZM57.1506 5.16572L59.9211 7.93622L57.1506 10.7067L54.3801 7.93622L57.1506 5.16572ZM45.3658 44.362H43.2231V42.2193H45.3658V44.362ZM51.7939 40.0766H36.795V31.5058H51.7939V40.0766ZM38.9377 29.3632V21.2359L51.7939 8.37976L56.7071 13.293L49.9651 20.0349C49.7641 20.2358 49.6512 20.5083 49.6512 20.7924V29.3632H38.9377ZM51.7939 22.4915V21.2359L52.8652 20.1646L62.5073 29.8067V33.7557C61.4261 33.5339 60.3025 33.6548 59.2933 34.1017V30.4345C59.2932 30.1504 59.1803 29.8779 58.9794 29.6771L51.7939 22.4915ZM38.9377 56.1468H49.6512V58.2895H38.9377V56.1468ZM62.5073 60.4322C62.5073 61.2846 62.1687 62.1021 61.5659 62.7049C60.9632 63.3076 60.1457 63.6462 59.2933 63.6462H28.2242V61.5035C28.2242 61.2194 28.3371 60.9469 28.538 60.746C28.7389 60.5451 29.0114 60.4322 29.2956 60.4322H58.2219C58.5061 60.4322 58.7786 60.3193 58.9795 60.1184C59.1804 59.9175 59.2933 59.645 59.2933 59.3609V43.9077C60.3025 44.3546 61.4261 44.4756 62.5073 44.2538V60.4322ZM61.436 42.2193C60.8003 42.2193 60.1789 42.0308 59.6504 41.6776C59.1218 41.3245 58.7099 40.8225 58.4666 40.2352C58.2233 39.6479 58.1597 39.0017 58.2837 38.3782C58.4077 37.7548 58.7138 37.1821 59.1633 36.7326C59.6128 36.2831 60.1855 35.977 60.8089 35.853C61.4324 35.729 62.0786 35.7926 62.6659 36.0359C63.2532 36.2791 63.7552 36.6911 64.1083 37.2196C64.4615 37.7482 64.65 38.3696 64.65 39.0053C64.65 39.8577 64.3114 40.6752 63.7086 41.2779C63.1059 41.8807 62.2884 42.2193 61.436 42.2193Z" fill="#1C48A3"/>
<path d="M15.3683 33.6485H13.2256V35.7912H15.3683V33.6485Z" fill="#1C48A3"/>
<path d="M15.3683 37.934H13.2256V40.0767H15.3683V37.934Z" fill="#1C48A3"/>
<path d="M15.3683 42.2193H13.2256V44.362H15.3683V42.2193Z" fill="#1C48A3"/>
<path d="M15.3683 46.5047H13.2256V48.6473H15.3683V46.5047Z" fill="#1C48A3"/>
<path d="M15.3683 50.7901H13.2256V52.9328H15.3683V50.7901Z" fill="#1C48A3"/>
<path d="M15.3683 55.0755H13.2256V57.2182H15.3683V55.0755Z" fill="#1C48A3"/>
<path d="M15.3683 59.3609H13.2256V61.5036H15.3683V59.3609Z" fill="#1C48A3"/>
<path d="M19.6534 59.3609H17.5107V61.5036H19.6534V59.3609Z" fill="#1C48A3"/>
<path d="M23.9391 59.3609H21.7964V61.5036H23.9391V59.3609Z" fill="#1C48A3"/>
<path d="M33.5807 10.0789H31.438V12.2216H33.5807V10.0789Z" fill="#1C48A3"/>
<path d="M37.8663 10.0789H35.7236V12.2216H37.8663V10.0789Z" fill="#1C48A3"/>
<path d="M42.1515 10.0789H40.0088V12.2216H42.1515V10.0789Z" fill="#1C48A3"/>
</svg>
