<svg width="1165" height="251" viewBox="0 0 1165 251" fill="none" xmlns="http://www.w3.org/2000/svg">
<rect opacity="0.9" x="0.894531" y="1.25195" width="1162.67" height="249" fill="#FAFCFF" stroke="#8DAAF5"/>
<path d="M516.262 122.924V126.103H506.506V144.252H502.492V122.924H516.262ZM505.202 130.907H510.373C512.023 130.907 513.439 131.186 514.621 131.742C515.803 132.289 516.706 133.056 517.331 134.042C517.966 135.028 518.283 136.186 518.283 137.514C518.283 138.51 518.103 139.418 517.741 140.238C517.39 141.059 516.872 141.771 516.188 142.377C515.505 142.973 514.675 143.437 513.698 143.769C512.722 144.091 511.613 144.252 510.373 144.252H502.492V122.924H506.535V141.088H510.373C511.252 141.088 511.979 140.922 512.556 140.59C513.132 140.258 513.562 139.818 513.845 139.271C514.128 138.725 514.27 138.129 514.27 137.484C514.27 136.85 514.128 136.273 513.845 135.756C513.562 135.238 513.132 134.828 512.556 134.525C511.979 134.223 511.252 134.071 510.373 134.071H505.202V130.907ZM538.855 126.161L532.776 144.252H528.514L536.482 122.924H539.207L538.855 126.161ZM543.938 144.252L537.83 126.161L537.464 122.924H540.203L548.216 144.252H543.938ZM543.66 136.327V139.506H532.22V136.327H543.66ZM573.563 131.728V134.892H562.343V131.728H573.563ZM563.441 122.924V144.252H559.413V122.924H563.441ZM576.552 122.924V144.252H572.523V122.924H576.552ZM603.804 131.728V134.892H592.583V131.728H603.804ZM593.682 122.924V144.252H589.653V122.924H593.682ZM606.792 122.924V144.252H602.764V122.924H606.792ZM634.029 141.088V144.252H622.691V141.088H634.029ZM623.922 122.924V144.252H619.894V122.924H623.922ZM632.55 131.728V134.818H622.691V131.728H632.55ZM633.985 122.924V126.103H622.691V122.924H633.985ZM654.03 136.474H648.537V133.31H654.03C654.929 133.31 655.656 133.163 656.213 132.87C656.779 132.567 657.194 132.157 657.458 131.64C657.722 131.112 657.854 130.512 657.854 129.838C657.854 129.184 657.722 128.573 657.458 128.007C657.194 127.44 656.779 126.981 656.213 126.63C655.656 126.278 654.929 126.103 654.03 126.103H649.855V144.252H645.827V122.924H654.03C655.69 122.924 657.106 123.222 658.278 123.817C659.46 124.403 660.358 125.219 660.974 126.264C661.599 127.299 661.911 128.48 661.911 129.809C661.911 131.186 661.599 132.372 660.974 133.368C660.358 134.364 659.46 135.131 658.278 135.668C657.106 136.205 655.69 136.474 654.03 136.474Z" fill="#C8D8F0"/>
</svg>
