<svg width="66" height="66" viewBox="0 0 66 66" fill="none" xmlns="http://www.w3.org/2000/svg">
<path d="M12.2039 37.565C12.4667 40.2455 13.7165 42.7326 15.7106 44.5431C17.7046 46.3535 20.3005 47.358 22.9938 47.3615H25.1618V50.6134C25.1618 50.8393 25.2324 51.0596 25.3637 51.2434L30.5816 58.5485V64.705C30.5816 64.9925 30.6958 65.2682 30.8991 65.4715C31.1024 65.6747 31.3781 65.789 31.6656 65.789H37.0855C37.3729 65.789 37.6487 65.6747 37.8519 65.4715C38.0552 65.2682 38.1694 64.9925 38.1694 64.705V56.0332H49.0091C49.1774 56.0332 49.3434 55.994 49.4939 55.9188C49.6445 55.8435 49.7754 55.7342 49.8764 55.5996L53.1283 51.2637C53.269 51.0761 53.345 50.8479 53.345 50.6134V47.2913C55.4393 47.0251 57.3648 46.0049 58.7614 44.4217C60.158 42.8386 60.9299 40.8008 60.9328 38.6897V31.1019H58.7649V38.6897C58.7628 40.226 58.2177 41.7121 57.2259 42.8854C56.2341 44.0587 54.8595 44.8436 53.345 45.1015V42.3906L56.2795 39.4562C56.4827 39.2529 56.5969 38.9772 56.5969 38.6897V33.2698H54.429V38.2407L51.4945 41.1751C51.2913 41.3784 51.1771 41.6541 51.1771 41.9416V45.1935H49.0091V34.3538H46.8412V37.2444L44.1313 40.8576H39.2534V43.0256H44.6733C44.8415 43.0256 45.0075 42.9864 45.1581 42.9111C45.3086 42.8359 45.4395 42.7266 45.5405 42.592L46.8412 40.8577V45.1935H27.3297L28.9557 43.0256H32.7496C32.928 43.0256 33.1037 42.9815 33.2611 42.8973C33.4184 42.8131 33.5525 42.6914 33.6515 42.5429L35.4976 39.7737H39.2534V37.6057H34.9175C34.7391 37.6057 34.5634 37.6498 34.406 37.734C34.2487 37.8182 34.1146 37.9399 34.0156 38.0884L32.1695 40.8576H28.4137C28.2454 40.8576 28.0794 40.8968 27.9289 40.9721C27.7784 41.0473 27.6474 41.1566 27.5465 41.2912L24.6198 45.1935H22.9938C20.7706 45.1909 18.633 44.3355 17.0217 42.8036C15.4104 41.2717 14.4481 39.18 14.3332 36.9597L16.49 34.8029L18.658 36.9708V40.8576C18.658 41.0361 18.702 41.2118 18.7862 41.3691C18.8704 41.5264 18.9922 41.6605 19.1407 41.7595L22.3926 43.9275L23.5951 42.1237L20.8259 40.2775V37.6057H24.0778V35.4378H20.1909L18.023 33.2699L19.6876 31.6054C20.1896 31.1005 20.7869 30.7003 21.4447 30.4278C22.1025 30.1553 22.8078 30.016 23.5198 30.0179H30.7434L27.7366 32.4234C27.6096 32.5249 27.5072 32.6537 27.4367 32.8002C27.3663 32.9468 27.3297 33.1073 27.3297 33.2698V37.6057H29.4977V33.7908L34.2138 30.0179H37.0855V27.85H32.7496V19.1782H30.5816V23.5141H26.8259L25.1618 21.018V17.4592L28.0963 14.5248C28.2995 14.3215 28.4137 14.0458 28.4137 13.7584V11.5904H33.8336V9.42249H15.4061C11.3826 9.42704 7.52531 11.0274 4.68033 13.8723C1.83534 16.7173 0.235025 20.5747 0.230469 24.5981C0.234408 27.8678 1.46796 31.0164 3.68614 33.4187C5.90432 35.8209 8.94485 37.301 12.2039 37.565ZM36.0015 63.621H32.7496V58.2012C32.7495 57.9752 32.679 57.755 32.5477 57.5711L27.3297 50.266V47.3615H31.6656V50.6134C31.6656 50.8479 31.7417 51.0761 31.8824 51.2637L35.1343 55.5996C35.2352 55.7342 35.3662 55.8435 35.5167 55.9188C35.6672 55.994 35.8332 56.0332 36.0015 56.0332V63.621ZM48.4672 53.8653H36.5435L33.8336 50.2521V47.3615H51.1771V50.2521L48.4672 53.8653ZM2.44396 23.5141H6.73429C7.0218 23.5141 7.29752 23.3999 7.50082 23.1966L10.7527 19.9447L9.21967 18.4118L6.28533 21.3462H2.80999C3.53461 18.5557 5.16413 16.0844 7.44342 14.3191C9.72272 12.5537 12.5231 11.5941 15.4061 11.5904H18.9114L16.9603 14.8423H13.2381V17.0103H17.574C17.7612 17.0103 17.9452 16.9618 18.1081 16.8696C18.271 16.7774 18.4072 16.6445 18.5035 16.484L21.4397 11.5904H26.2458V13.3094L23.3113 16.2438C23.108 16.4471 22.9938 16.7228 22.9938 17.0103V20.2622H14.3221V22.4301H23.4977L25.3439 25.1993C25.4428 25.3478 25.577 25.4696 25.7343 25.5538C25.8916 25.638 26.0673 25.682 26.2458 25.682H30.5816V27.85H23.5198C22.0177 27.846 20.5486 28.2912 19.3014 29.1284L17.2566 27.0835C17.0533 26.8802 16.7775 26.766 16.49 26.766H13.2381V28.934H16.0411L17.667 30.5599L13.328 34.8989L9.9862 30.7217V26.766H7.81826V31.1019C7.81826 31.348 7.90202 31.5868 8.05578 31.779L10.7495 35.1462C8.37432 34.5829 6.25831 33.2355 4.74309 31.3216C3.22786 29.4078 2.40185 27.0391 2.39841 24.5981C2.39841 24.233 2.41432 23.8716 2.44396 23.5141Z" fill="#1C48A3"/>
<path d="M34.9175 33.2698V35.4378H41.4213C41.5896 35.4378 41.7556 35.3986 41.9061 35.3233C42.0566 35.248 42.1876 35.1388 42.2885 35.0041L43.9145 32.8362L42.18 31.5355L40.8793 33.2698H34.9175Z" fill="#1C48A3"/>
<path d="M64.105 10.0892C63.7781 9.30601 63.3861 8.55167 62.933 7.83409L61.1001 8.99164C61.4882 9.60641 61.824 10.2527 62.104 10.9236L64.105 10.0892Z" fill="#1C48A3"/>
<path d="M50.0931 31.1018C52.2828 31.1001 54.4463 30.6249 56.4352 29.7088C58.4241 28.7927 60.1914 27.4573 61.6159 25.7943C63.0404 24.1312 64.0884 22.1797 64.688 20.0737C65.2877 17.9677 65.4249 15.7569 65.0902 13.5928L62.9476 13.9238C63.0496 14.5864 63.1008 15.2558 63.1007 15.9262C63.1007 18.4989 62.3378 21.0138 60.9085 23.1529C59.4792 25.292 57.4477 26.9592 55.0709 27.9437C52.694 28.9283 50.0786 29.1859 47.5554 28.684C45.0322 28.182 42.7144 26.9432 40.8953 25.124C39.0761 23.3049 37.8373 20.9871 37.3354 18.4639C36.8335 15.9407 37.0911 13.3253 38.0756 10.9484C39.0601 8.5716 40.7273 6.54008 42.8664 5.11079C45.0055 3.68149 47.5204 2.9186 50.0931 2.9186C52.1833 2.91171 54.2437 3.41444 56.0959 4.38326L57.0979 2.46077C55.0576 1.39953 52.8029 0.815818 50.504 0.753732C48.2051 0.691646 45.9222 1.15281 43.8277 2.10238C41.7331 3.05196 39.8818 4.46511 38.4135 6.23509C36.9452 8.00506 35.8983 10.0856 35.352 12.3195C34.8056 14.5534 34.7741 16.8822 35.2598 19.13C35.7454 21.3779 36.7356 23.486 38.1554 25.2951C39.5752 27.1042 41.3876 28.5669 43.4557 29.5729C45.5237 30.5788 47.7933 31.1016 50.0931 31.1018Z" fill="#1C48A3"/>
<path d="M50.0932 18.0942C51.2906 18.0942 52.2612 17.1236 52.2612 15.9263C52.2612 14.729 51.2906 13.7584 50.0932 13.7584C48.8959 13.7584 47.9253 14.729 47.9253 15.9263C47.9253 17.1236 48.8959 18.0942 50.0932 18.0942Z" fill="#1C48A3"/>
<path d="M57.0611 10.6517L56.0504 11.2352C55.6793 10.765 55.2543 10.34 54.7842 9.96899L55.3677 8.9583C55.6167 9.10204 55.9125 9.14099 56.1902 9.06659C56.4679 8.99218 56.7047 8.81051 56.8484 8.56154C56.9922 8.31256 57.0311 8.01669 56.9567 7.739C56.8823 7.4613 56.7006 7.22454 56.4517 7.0808L54.5743 5.99683C54.451 5.92566 54.3149 5.87946 54.1738 5.86088C54.0327 5.8423 53.8893 5.8517 53.7518 5.88854C53.6143 5.92539 53.4854 5.98895 53.3724 6.07561C53.2595 6.16226 53.1647 6.27032 53.0936 6.39359C53.0224 6.51687 52.9762 6.65296 52.9576 6.79409C52.939 6.93523 52.9484 7.07863 52.9853 7.21613C53.0221 7.35363 53.0857 7.48253 53.1723 7.59546C53.259 7.70839 53.367 7.80315 53.4903 7.87433L52.9084 8.88225C52.3519 8.65875 51.7707 8.50261 51.1771 8.41717V7.25453C51.4646 7.25453 51.7403 7.14033 51.9436 6.93705C52.1469 6.73376 52.2611 6.45805 52.2611 6.17056C52.2611 5.88308 52.1469 5.60737 51.9436 5.40408C51.7403 5.2008 51.4646 5.08659 51.1771 5.08659H49.0092C48.7217 5.08659 48.446 5.2008 48.2427 5.40408C48.0394 5.60737 47.9252 5.88308 47.9252 6.17056C47.9252 6.45805 48.0394 6.73376 48.2427 6.93705C48.446 7.14033 48.7217 7.25453 49.0092 7.25453V8.41717C48.4156 8.50261 47.8344 8.65875 47.2779 8.88224L46.6959 7.87432C46.8192 7.80315 46.9273 7.70839 47.0139 7.59546C47.1006 7.48252 47.1641 7.35363 47.201 7.21613C47.2378 7.07863 47.2472 6.93522 47.2286 6.79409C47.2101 6.65296 47.1639 6.51687 47.0927 6.39359C47.0215 6.27031 46.9268 6.16226 46.8138 6.0756C46.7009 5.98895 46.572 5.92538 46.4345 5.88854C46.297 5.8517 46.1536 5.8423 46.0124 5.86088C45.8713 5.87946 45.7352 5.92565 45.612 5.99683L43.7346 7.0808C43.6113 7.15197 43.5033 7.24673 43.4166 7.35966C43.3299 7.4726 43.2664 7.60149 43.2295 7.73899C43.1927 7.87649 43.1833 8.0199 43.2019 8.16103C43.2205 8.30216 43.2666 8.43825 43.3378 8.56153C43.409 8.68481 43.5038 8.79286 43.6167 8.87952C43.7296 8.96617 43.8585 9.02974 43.996 9.06658C44.1335 9.10343 44.2769 9.11283 44.4181 9.09425C44.5592 9.07567 44.6953 9.02947 44.8186 8.95829L45.4021 9.96898C44.9319 10.34 44.5069 10.765 44.1358 11.2352L43.1251 10.6516C43.1963 10.5284 43.2425 10.3923 43.2611 10.2512C43.2797 10.11 43.2703 9.96665 43.2334 9.82916C43.1966 9.69167 43.133 9.56278 43.0464 9.44985C42.9597 9.33692 42.8517 9.24216 42.7284 9.17099C42.6051 9.09981 42.4691 9.05362 42.3279 9.03503C42.1868 9.01645 42.0434 9.02585 41.9059 9.06269C41.7684 9.09952 41.6395 9.16308 41.5266 9.24973C41.4137 9.33638 41.3189 9.44442 41.2478 9.56769L40.1638 11.4452C40.0926 11.5685 40.0464 11.7045 40.0278 11.8457C40.0092 11.9868 40.0186 12.1302 40.0555 12.2677C40.0923 12.4052 40.1559 12.5341 40.2425 12.647C40.3292 12.7599 40.4372 12.8547 40.5605 12.9259C40.6838 12.997 40.8198 13.0432 40.961 13.0618C41.1021 13.0804 41.2455 13.071 41.383 13.0342C41.5205 12.9973 41.6494 12.9338 41.7623 12.8471C41.8752 12.7605 41.97 12.6524 42.0411 12.5292V12.5291L43.049 13.1111C42.8256 13.6675 42.6694 14.2488 42.584 14.8423H41.4214C41.4214 14.5548 41.3072 14.2791 41.1039 14.0758C40.9006 13.8726 40.6249 13.7584 40.3374 13.7584C40.0499 13.7584 39.7742 13.8726 39.5709 14.0758C39.3676 14.2791 39.2534 14.5548 39.2534 14.8423V17.0103C39.2534 17.2978 39.3676 17.5735 39.5709 17.7768C39.7742 17.98 40.0499 18.0942 40.3374 18.0942C40.6249 18.0942 40.9006 17.98 41.1039 17.7768C41.3072 17.5735 41.4214 17.2978 41.4214 17.0103H42.584C42.6694 17.6038 42.8256 18.185 43.049 18.7415L42.0411 19.3234V19.3234C41.97 19.2002 41.8752 19.0921 41.7623 19.0055C41.6494 18.9188 41.5205 18.8553 41.383 18.8184C41.2455 18.7816 41.1021 18.7722 40.961 18.7908C40.8198 18.8094 40.6838 18.8556 40.5605 18.9267C40.4372 18.9979 40.3292 19.0927 40.2425 19.2056C40.1559 19.3185 40.0923 19.4474 40.0555 19.5849C40.0186 19.7224 40.0092 19.8658 40.0278 20.0069C40.0464 20.148 40.0926 20.2841 40.1638 20.4074L41.2478 22.2849C41.3189 22.4082 41.4137 22.5162 41.5266 22.6029C41.6395 22.6895 41.7684 22.7531 41.9059 22.7899C42.0434 22.8267 42.1868 22.8361 42.3279 22.8176C42.4691 22.799 42.6051 22.7528 42.7284 22.6816C42.8517 22.6104 42.9597 22.5157 43.0464 22.4027C43.133 22.2898 43.1966 22.1609 43.2334 22.0234C43.2703 21.8859 43.2797 21.7425 43.2611 21.6014C43.2425 21.4603 43.1963 21.3242 43.1251 21.2009L44.1358 20.6174C44.5069 21.0876 44.9319 21.5125 45.4021 21.8836L44.8186 22.8943C44.5696 22.7506 44.2737 22.7116 43.996 22.786C43.7183 22.8604 43.4816 23.0421 43.3378 23.2911C43.1941 23.54 43.1551 23.8359 43.2295 24.1136C43.3039 24.3913 43.4856 24.628 43.7346 24.7718L45.612 25.8558C45.7352 25.9269 45.8713 25.9731 46.0124 25.9917C46.1536 26.0103 46.297 26.0009 46.4345 25.9641C46.572 25.9272 46.7009 25.8636 46.8138 25.777C46.9268 25.6903 47.0215 25.5823 47.0927 25.459C47.1639 25.3357 47.2101 25.1996 47.2286 25.0585C47.2472 24.9174 47.2378 24.774 47.201 24.6365C47.1641 24.499 47.1006 24.3701 47.0139 24.2571C46.9273 24.1442 46.8192 24.0494 46.6959 23.9783L47.2779 22.9703C47.8344 23.1938 48.4156 23.35 49.0092 23.4354V24.5981C48.7217 24.5981 48.446 24.7123 48.2427 24.9155C48.0394 25.1188 47.9252 25.3945 47.9252 25.682C47.9252 25.9695 48.0394 26.2452 48.2427 26.4485C48.446 26.6518 48.7217 26.766 49.0092 26.766H51.1771C51.4646 26.766 51.7403 26.6518 51.9436 26.4485C52.1469 26.2452 52.2611 25.9695 52.2611 25.682C52.2611 25.3945 52.1469 25.1188 51.9436 24.9155C51.7403 24.7123 51.4646 24.5981 51.1771 24.5981V23.4354C51.7707 23.35 52.3519 23.1938 52.9084 22.9704L53.4903 23.9783C53.2413 24.122 53.0597 24.3588 52.9853 24.6365C52.9109 24.9142 52.9498 25.21 53.0936 25.459C53.2373 25.708 53.4741 25.8896 53.7518 25.9641C54.0294 26.0385 54.3253 25.9995 54.5743 25.8558L56.4517 24.7718C56.5749 24.7006 56.683 24.6059 56.7696 24.4929C56.8563 24.38 56.9199 24.2511 56.9567 24.1136C56.9935 23.9761 57.0029 23.8327 56.9844 23.6916C56.9658 23.5504 56.9196 23.4143 56.8484 23.2911C56.7772 23.1678 56.6825 23.0597 56.5696 22.9731C56.4566 22.8864 56.3277 22.8229 56.1902 22.786C56.0527 22.7492 55.9093 22.7398 55.7682 22.7583C55.6271 22.7769 55.491 22.8231 55.3677 22.8943L54.7842 21.8836C55.2543 21.5126 55.6793 21.0876 56.0504 20.6174L57.0611 21.2009C56.99 21.3242 56.9438 21.4603 56.9252 21.6014C56.9066 21.7425 56.916 21.8859 56.9528 22.0234C56.9897 22.1609 57.0532 22.2898 57.1399 22.4027C57.2265 22.5157 57.3346 22.6104 57.4578 22.6816C57.5811 22.7528 57.7172 22.799 57.8583 22.8176C57.9994 22.8361 58.1428 22.8267 58.2803 22.7899C58.4178 22.7531 58.5467 22.6895 58.6596 22.6029C58.7726 22.5162 58.8673 22.4082 58.9385 22.2849L60.0225 20.4074C60.0936 20.2841 60.1398 20.1481 60.1584 20.0069C60.177 19.8658 60.1676 19.7224 60.1308 19.5849C60.0939 19.4474 60.0304 19.3185 59.9437 19.2056C59.8571 19.0927 59.749 18.9979 59.6258 18.9267C59.5025 18.8556 59.3664 18.8094 59.2253 18.7908C59.0842 18.7722 58.9408 18.7816 58.8033 18.8184C58.6658 18.8553 58.5369 18.9188 58.424 19.0055C58.311 19.0921 58.2163 19.2002 58.1451 19.3234V19.3235L57.1372 18.7415C57.3607 18.1851 57.5168 17.6038 57.6022 17.0103H58.7649C58.7649 17.2978 58.8791 17.5735 59.0824 17.7768C59.2857 17.98 59.5614 18.0942 59.8489 18.0942C60.1363 18.0942 60.4121 17.98 60.6153 17.7768C60.8186 17.5735 60.9328 17.2978 60.9328 17.0103V14.8423C60.9328 14.5548 60.8186 14.2791 60.6153 14.0758C60.4121 13.8726 60.1363 13.7584 59.8489 13.7584C59.5614 13.7584 59.2857 13.8726 59.0824 14.0758C58.8791 14.2791 58.7649 14.5548 58.7649 14.8423H57.6022C57.5168 14.2488 57.3607 13.6675 57.1372 13.1111L58.1451 12.5291V12.5292C58.2163 12.6524 58.311 12.7605 58.424 12.8471C58.5369 12.9338 58.6658 12.9973 58.8033 13.0342C58.9408 13.071 59.0842 13.0804 59.2253 13.0618C59.3664 13.0432 59.5025 12.997 59.6258 12.9259C59.749 12.8547 59.8571 12.7599 59.9437 12.647C60.0304 12.5341 60.0939 12.4052 60.1308 12.2677C60.1676 12.1302 60.177 11.9868 60.1584 11.8457C60.1398 11.7045 60.0936 11.5685 60.0225 11.4452L58.9385 9.5677C58.8673 9.44443 58.7726 9.33638 58.6596 9.24973C58.5467 9.16308 58.4178 9.09953 58.2803 9.06269C58.1428 9.02585 57.9994 9.01646 57.8583 9.03504C57.7172 9.05362 57.5811 9.09982 57.4578 9.17099C57.3346 9.24216 57.2265 9.33692 57.1399 9.44985C57.0532 9.56278 56.9897 9.69167 56.9528 9.82916C56.916 9.96665 56.9066 10.1101 56.9252 10.2512C56.9438 10.3923 56.99 10.5284 57.0611 10.6517ZM55.513 15.9263C55.513 16.9982 55.1951 18.0461 54.5996 18.9374C54.004 19.8287 53.1576 20.5234 52.1672 20.9336C51.1769 21.3438 50.0871 21.4511 49.0358 21.242C47.9844 21.0329 47.0187 20.5167 46.2607 19.7587C45.5027 19.0007 44.9865 18.035 44.7774 16.9837C44.5683 15.9323 44.6756 14.8426 45.0858 13.8522C45.496 12.8619 46.1907 12.0154 47.082 11.4199C47.9733 10.8243 49.0212 10.5064 50.0931 10.5064C51.5301 10.5081 52.9077 11.0796 53.9237 12.0957C54.9398 13.1118 55.5113 14.4894 55.513 15.9263Z" fill="#1C48A3"/>
</svg>
