<svg width="20" height="21" viewBox="0 0 20 21" fill="none" xmlns="http://www.w3.org/2000/svg">
<path d="M10 3.49008C8.09072 3.49008 6.3617 4.26407 5.11098 5.51479C3.97964 6.64612 3.23886 8.16801 3.10762 9.86067H7.47011L5.88339 8.23521L6.65975 7.4802L9.14537 10.0267L9.51379 10.4038L9.14537 10.7817L6.65975 13.3274L5.88339 12.5724L7.47011 10.9469H2.54314H2V10.4038C2 8.19489 2.89574 6.19391 4.34331 4.74712C5.7901 3.29955 7.79109 2.40381 10 2.40381V3.49008ZM7.91442 18.1287C6.54669 17.7603 5.32286 17.0369 4.34964 16.0652C3.37484 15.0912 2.64908 13.869 2.27829 12.5028L3.32661 12.219C3.64759 13.4017 4.27374 14.4588 5.11414 15.2976C5.95454 16.1372 7.01235 16.7625 8.19508 17.0804L7.91442 18.1287ZM12.0761 2.67656C13.4533 3.04577 14.685 3.7747 15.6638 4.75582C16.641 5.73615 17.3667 6.97027 17.7328 8.34906L16.6845 8.62577C16.369 7.43435 15.7413 6.36784 14.8961 5.51953C14.0518 4.6736 12.9869 4.0435 11.7954 3.72489L12.0761 2.67656ZM14.1166 8.23521L12.5299 9.86067H17.4569H18V10.4038C18 12.6119 17.1043 14.6113 15.6575 16.0589L15.6551 16.0613C14.2075 17.5081 12.2081 18.4038 10 18.4038V17.3175C11.9101 17.3175 13.6391 16.5435 14.8898 15.2936C16.0204 14.1631 16.7611 12.6404 16.8932 10.9469H12.5299L14.1166 12.5724L13.341 13.3274L10.8546 10.7817L10.4862 10.4038L10.8546 10.0267L13.341 7.4802L14.1166 8.23521Z" fill="#828282"/>
</svg>
