<svg width="21" height="21" viewBox="0 0 21 21" fill="none" xmlns="http://www.w3.org/2000/svg">
<path d="M3.30778 4.01579C4.38573 2.93784 6.16676 2.81288 8.17398 3.48195C8.87943 3.71684 9.61652 4.05138 10.3623 4.47607C11.1089 4.05138 11.846 3.71684 12.5514 3.48195C14.5578 2.81288 16.3397 2.93784 17.4168 4.01579C18.4948 5.09374 18.6197 6.87477 17.9507 8.88199C17.7158 9.58744 17.382 10.3245 16.9565 11.0703C17.382 11.8161 17.7158 12.554 17.9507 13.2586C18.6197 15.2659 18.4948 17.0469 17.4168 18.1248C16.3397 19.2028 14.5578 19.3277 12.5514 18.6587C11.846 18.4238 11.1089 18.09 10.3623 17.6646C9.61652 18.09 8.87943 18.4238 8.17398 18.6587C6.16676 19.3277 4.38573 19.2028 3.30778 18.1248C2.22983 17.0469 2.10487 15.2659 2.77395 13.2586C3.00883 12.5532 3.34337 11.8161 3.76886 11.0703C3.34337 10.3245 3.00962 9.58665 2.77395 8.88199C2.10487 6.87477 2.22983 5.09374 3.30778 4.01579ZM10.3623 9.09394C10.908 9.09394 11.4023 9.31538 11.7598 9.67285C12.1172 10.0303 12.3387 10.5254 12.3387 11.0703C12.3387 11.616 12.1172 12.1103 11.7598 12.4678C11.4023 12.8252 10.908 13.0467 10.3623 13.0467C9.8174 13.0467 9.32232 12.8252 8.96484 12.4678C8.60816 12.1103 8.38672 11.616 8.38672 11.0703C8.38672 10.5254 8.60816 10.0303 8.96484 9.67285C9.32232 9.31538 9.8174 9.09394 10.3623 9.09394ZM10.9918 10.4416C10.8305 10.2802 10.6083 10.1806 10.3623 10.1806C10.1163 10.1806 9.89411 10.2802 9.73357 10.4416C9.57223 10.6021 9.47258 10.8244 9.47258 11.0703C9.47258 11.3163 9.57223 11.5385 9.73357 11.6998C9.89411 11.8604 10.1163 11.96 10.3623 11.96C10.6083 11.96 10.8305 11.8604 10.9918 11.6998C11.1524 11.5385 11.252 11.3163 11.252 11.0703C11.252 10.8244 11.1524 10.6021 10.9918 10.4416ZM11.4181 5.13486C12.3229 5.75016 13.2244 6.49357 14.0817 7.35087C14.939 8.20817 15.6825 9.10976 16.2978 10.0153C16.5556 9.51231 16.7652 9.01881 16.9233 8.54271C17.4611 6.92855 17.4121 5.5477 16.6489 4.78451C15.8849 4.02053 14.5041 3.9715 12.8907 4.50929C12.4146 4.66746 11.9203 4.87783 11.4181 5.13486ZM9.30729 17.0058C8.40175 16.3905 7.50095 15.6471 6.64365 14.7898C5.78635 13.9325 5.04215 13.0309 4.42686 12.1253C4.16982 12.6283 3.96024 13.1218 3.80128 13.5987C3.26349 15.2121 3.31253 16.5929 4.0765 17.3569C4.83969 18.1201 6.22133 18.1691 7.8347 17.6313C8.3108 17.4732 8.8043 17.2636 9.30729 17.0058ZM10.3623 5.73829C9.36898 6.36545 8.36458 7.16581 7.41158 8.11959C6.45859 9.07259 5.65744 10.077 5.03108 11.0703C5.65744 12.0636 6.45859 13.068 7.41158 14.021C8.36458 14.9748 9.36898 15.7752 10.3623 16.4023C11.3556 15.7752 12.3608 14.9748 13.3138 14.021C14.2668 13.068 15.0672 12.0636 15.6943 11.0703C15.0672 10.077 14.2668 9.07259 13.3138 8.11959C12.3608 7.16581 11.3556 6.36545 10.3623 5.73829ZM16.2978 12.1253C15.6825 13.0309 14.939 13.9325 14.0817 14.7898C13.2244 15.6471 12.3229 16.3905 11.4181 17.0058C11.9203 17.2636 12.4146 17.4724 12.8907 17.6313C14.5041 18.1691 15.8849 18.1201 16.6489 17.3569C17.4121 16.5929 17.4611 15.2121 16.9233 13.5987C16.7652 13.1218 16.5556 12.6283 16.2978 12.1253ZM4.42686 10.0153C5.04215 9.10976 5.78635 8.20817 6.64365 7.35087C7.50016 6.49357 8.40175 5.75016 9.30729 5.13486C8.8043 4.87783 8.3108 4.66825 7.8347 4.50929C6.22133 3.9715 4.83969 4.02053 4.0765 4.78451C3.31253 5.5477 3.26349 6.92855 3.80128 8.54271C3.96024 9.01881 4.16982 9.51231 4.42686 10.0153Z" fill="#828282"/>
</svg>
