<svg width="418" height="161" viewBox="0 0 418 161" fill="none" xmlns="http://www.w3.org/2000/svg">
<path d="M416.878 26.1555C416.878 27.6773 415.636 29.3106 412.877 31.0004C410.152 32.6694 406.101 34.297 400.836 35.857C390.315 38.9747 375.065 41.7887 356.192 44.1541C318.453 48.884 266.303 51.811 208.689 51.811C151.075 51.811 98.9247 48.884 61.1858 44.1541C42.3128 41.7887 27.0633 38.9747 16.5419 35.857C11.2774 34.297 7.22597 32.6694 4.50097 31.0004C1.74212 29.3106 0.5 27.6773 0.5 26.1555C0.5 24.6336 1.74212 23.0004 4.50097 21.3106C7.22597 19.6416 11.2774 18.0139 16.5419 16.454C27.0633 13.3363 42.3128 10.5223 61.1858 8.15688C98.9247 3.42698 151.075 0.5 208.689 0.5C266.303 0.5 318.453 3.42698 356.192 8.15688C375.065 10.5223 390.315 13.3363 400.836 16.454C406.101 18.0139 410.152 19.6416 412.877 21.3106C415.636 23.0004 416.878 24.6336 416.878 26.1555Z" stroke="#FFF200"/>
<path d="M207.254 160.312C198.173 160.309 189.213 160.216 180.461 160.063V93.7911V93.2982L179.969 93.2911C173.393 93.1966 166.94 93.0406 160.609 92.8531V72.9033C166.934 73.0905 173.382 73.2463 179.953 73.3407C189.026 73.5024 198.326 73.5995 207.754 73.5995H208.691C214.911 73.5995 221.04 73.5689 227.106 73.5076V93.4578C221.04 93.5191 214.911 93.5497 208.691 93.5497H207.754H207.254V94.0497V160.312Z" stroke="#FFF200"/>
<path d="M267.196 92.5155L266.715 92.5341V93.0152V105.43V105.95L267.234 105.93C279.6 105.452 291.497 104.881 302.804 104.153V124.101C291.489 124.83 279.579 125.403 267.196 125.881L266.715 125.899V126.38V138.795V139.315L267.234 139.295C279.6 138.817 291.497 138.246 302.804 137.518V157.499C291.49 158.228 279.58 158.8 267.197 159.278C258.354 159.596 249.232 159.851 239.922 160.013V73.3C249.245 73.1378 258.379 72.8824 267.233 72.5646L267.234 72.5645C279.6 72.087 291.497 71.5153 302.804 70.7877V90.7359C291.489 91.4647 279.579 92.0373 267.196 92.5155Z" stroke="#FFF200"/>
<path d="M338.179 87.8941L337.728 87.9379V88.3918V100.807V101.358L338.276 101.304C348.065 100.356 357.145 99.2522 365.424 98.0848V118.025C357.121 119.198 348.009 120.307 338.179 121.259L337.728 121.303V121.757V134.172V134.723L338.276 134.67C348.065 133.721 357.145 132.617 365.424 131.45V151.423C357.122 152.594 348.009 153.672 338.178 154.657L338.177 154.657C331.018 155.384 323.456 156.018 315.551 156.62V69.9095C323.487 69.3055 331.083 68.6691 338.277 67.9391C348.066 66.9903 357.145 65.8869 365.424 64.7195V84.6599C357.121 85.8326 348.009 86.9414 338.179 87.8941Z" stroke="#FFF200"/>
<path d="M396.143 145.618L396.14 145.619C391.011 146.966 385.024 148.223 378.238 149.389V62.7211C384.841 61.5606 390.702 60.3419 395.767 59.0645V125.152V125.796L396.391 125.636C403.167 123.903 408.49 122.057 412.13 120.113C413.949 119.141 415.373 118.132 416.348 117.081C416.542 116.872 416.719 116.66 416.878 116.445V134.657C416.878 135.518 416.482 136.415 415.615 137.351C414.744 138.29 413.427 139.237 411.659 140.181C408.124 142.069 402.892 143.892 396.143 145.618Z" stroke="#FFF200"/>
<path d="M148.073 153.459H148.07L147.921 153.626C146.6 155.106 145.13 156.295 143.447 157.168L143.447 157.168L143.438 157.173C142.071 157.92 140.576 158.42 138.984 158.67L138.962 158.673L138.94 158.679C138.757 158.725 138.534 158.752 138.303 158.78C138.266 158.784 138.229 158.789 138.191 158.793H138.191H138.191H138.191H138.191H138.191H138.191H138.191H138.191H138.191H138.191H138.19H138.19H138.19H138.19H138.19H138.19H138.19H138.19H138.19H138.19H138.189H138.189H138.189H138.189H138.189H138.189H138.189H138.189H138.189H138.189H138.189H138.188H138.188H138.188H138.188H138.188H138.188H138.188H138.188H138.188H138.188H138.187H138.187H138.187H138.187H138.187H138.187H138.187H138.187H138.187H138.187H138.187H138.186H138.186H138.186H138.186H138.186H138.186H138.186H138.186H138.186H138.186H138.185H138.185H138.185H138.185H138.185H138.185H138.185H138.185H138.185H138.185H138.184H138.184H138.184H138.184H138.184H138.184H138.184H138.184H138.184H138.184H138.183H138.183H138.183H138.183H138.183H138.183H138.183H138.183H138.183H138.183H138.182H138.182H138.182H138.182H138.182H138.182H138.182H138.182H138.182H138.181H138.181H138.181H138.181H138.181H138.181H138.181H138.181H138.181H138.181H138.18H138.18H138.18H138.18H138.18H138.18H138.18H138.18H138.18H138.179H138.179H138.179H138.179H138.179H138.179H138.179H138.179H138.179H138.178H138.178H138.178H138.178H138.178H138.178H138.178H138.178H138.177H138.177H138.177H138.177H138.177H138.177H138.177H138.177H138.177H138.176H138.176H138.176H138.176H138.176H138.176H138.176H138.176H138.175H138.175H138.175H138.175H138.175H138.175H138.175H138.175H138.174H138.174H138.174H138.174H138.174H138.174H138.174H138.174H138.173H138.173H138.173H138.173H138.173H138.173H138.173H138.172H138.172H138.172H138.172H138.172H138.172H138.172H138.172H138.171H138.171H138.171H138.171H138.171H138.171H138.171C137.546 158.761 136.929 158.729 136.312 158.697C135.69 158.665 135.069 158.632 134.439 158.6L134.434 158.6C133.663 158.567 132.89 158.527 132.119 158.487L132.056 158.483C131.308 158.444 130.56 158.405 129.82 158.373C128.463 158.309 127.115 158.244 125.799 158.148L125.799 158.148L125.788 158.147C122.69 157.986 119.69 157.824 116.692 157.63L116.691 157.63L116.641 157.627C115.108 157.531 113.576 157.435 112.075 157.339L112.074 157.339C110.492 157.242 108.948 157.146 107.438 157.017L107.438 157.017L107.426 157.016C106.638 156.968 105.866 156.911 105.096 156.855L105.018 156.849C104.275 156.794 103.533 156.74 102.783 156.693C102.035 156.631 101.288 156.576 100.547 156.521L100.463 156.515C99.6924 156.459 98.9286 156.402 98.1734 156.338L98.1725 156.338L98.1689 156.338C96.7799 156.222 95.3863 156.105 94.0149 156.012V136.032C95.356 136.124 96.7204 136.237 98.0893 136.352C98.8509 136.417 99.6201 136.473 100.39 136.53L100.468 136.536C101.214 136.59 101.96 136.645 102.705 136.707L102.705 136.707L102.716 136.708C103.462 136.755 104.2 136.809 104.946 136.864L105.022 136.869C105.791 136.926 106.566 136.982 107.359 137.031C108.881 137.161 110.434 137.258 112.013 137.355C113.527 137.452 115.074 137.548 116.62 137.645L116.628 137.646L116.632 137.646L121.243 137.904C121.243 137.904 121.244 137.904 121.245 137.904C123.991 138.084 126.262 135.91 126.262 133.17C126.262 131.152 125.002 129.341 123.084 128.688C122.42 128.458 121.666 128.198 120.854 127.917C119.61 127.488 118.23 127.012 116.824 126.523L116.824 126.523C115.424 126.036 113.999 125.55 112.706 125.109C112.538 125.051 112.373 124.995 112.21 124.939C110.892 124.456 109.668 124.037 108.76 123.744C108.739 123.735 108.714 123.725 108.687 123.713C108.581 123.668 108.438 123.607 108.31 123.573C107.432 123.289 106.582 122.943 105.712 122.588L105.712 122.588L105.704 122.584C104.886 122.267 104.136 121.838 103.602 121.532C103.517 121.483 103.437 121.437 103.364 121.396C99.2702 118.665 95.9388 113.518 93.9926 107.222L93.9911 107.218C93.4508 105.531 93.0367 103.745 92.7498 101.925L92.7499 101.925L92.7482 101.916C92.3335 99.5832 92.1104 97.1877 92.1104 94.7612C92.1104 93.0658 92.2062 91.3457 92.4598 89.6628L92.4614 89.6527L92.4625 89.6427C92.7168 87.3179 93.2256 84.9939 93.9879 82.7668L93.9902 82.7601L93.9923 82.7533C94.5945 80.8172 95.386 78.9453 96.3665 77.1691C97.5418 75.306 100.923 70.1169 107.381 70.3017L107.388 70.3019H107.395H107.534C108.987 70.4309 110.503 70.5278 112.011 70.6242L112.012 70.6242C113.519 70.7206 115.059 70.817 116.598 70.9133L116.628 70.9152L116.629 70.9153C120.923 71.1739 125.283 71.4327 129.772 71.6592L129.776 71.6593C130.512 71.6907 131.255 71.7297 132.006 71.7691L132.067 71.7723C132.837 71.8127 133.615 71.8532 134.393 71.8857C135.164 71.9179 135.936 71.9582 136.712 71.9986L136.713 71.9987C137.486 72.039 138.263 72.0795 139.041 72.112C140.548 72.1762 142.087 72.2405 143.627 72.3047L143.656 72.3059C143.656 72.3059 143.657 72.3059 143.657 72.3059C145.018 72.364 146.404 72.4219 147.794 72.4799V92.4294C146.418 92.372 145.046 92.3146 143.699 92.2572L143.699 92.2571C142.149 92.1925 140.6 92.1278 139.083 92.0631L139.083 92.0631C138.311 92.0309 137.539 91.9906 136.764 91.9502L136.762 91.9502C135.989 91.9098 135.212 91.8693 134.434 91.8368C133.663 91.8046 132.89 91.7643 132.119 91.7239L132.056 91.7206C131.308 91.6813 130.561 91.6422 129.821 91.6106C127.983 91.5137 126.176 91.4168 124.37 91.3199C124.369 91.3198 124.369 91.3198 124.369 91.3198L121.532 91.1584C121.532 91.1584 121.532 91.1583 121.531 91.1583C118.628 90.9795 116.16 93.3105 116.16 96.2161C116.16 98.4352 117.556 100.375 119.669 101.057L119.672 101.057C120.826 101.423 122.392 101.927 124.515 102.61C125.954 103.072 127.649 103.617 129.645 104.258L129.645 104.258L129.65 104.259L129.797 103.781L129.65 104.259L129.65 104.259L129.651 104.259L129.653 104.26L129.662 104.263L129.697 104.274L129.832 104.315L130.317 104.465C130.721 104.59 131.268 104.758 131.837 104.934C132.976 105.286 134.2 105.665 134.552 105.777L134.552 105.778L134.565 105.781C136.985 106.483 138.028 106.926 140.078 107.824C143.562 109.538 145.355 111.213 145.808 111.666C148.88 114.807 151.07 118.555 152.502 122.567C152.948 123.908 153.33 125.249 153.649 126.589C154.539 130.666 154.666 134.875 154.157 138.862C153.839 141.281 153.267 143.606 152.504 145.771C151.415 148.73 149.936 151.34 148.073 153.459ZM98.1309 156.836L98.1309 156.836L98.1309 156.836Z" stroke="#FFF200"/>
<path d="M44.9261 120.491L44.9263 120.491C44.7366 119.478 44.4833 118.495 44.1977 117.573L44.1956 117.566C43.3073 114.547 41.9767 111.885 40.3671 109.704L40.3633 109.699L40.3633 109.699C39.0749 107.905 37.5417 106.466 35.8948 105.47C34.4988 104.631 32.9982 104.115 31.4851 104.055L31.4252 104.052L31.3676 104.036C31.2177 103.993 31.0903 103.99 30.8595 103.99V103.49V102.99C31.0903 102.99 31.2177 102.988 31.3676 102.945L31.4206 102.93L31.4757 102.927C33.0149 102.836 34.5102 102.261 35.8695 101.333C37.5989 100.126 39.1308 98.3179 40.3271 96.0476L40.3303 96.0416L40.3303 96.0416L40.3304 96.0415L40.3306 96.0412L40.3313 96.0397L40.3345 96.0339L40.3467 96.0115L40.3909 95.9297C40.4278 95.8612 40.4777 95.7684 40.5294 95.6708C40.5812 95.5729 40.6342 95.4717 40.6777 95.386C40.6994 95.3431 40.7181 95.3056 40.7327 95.2752C40.74 95.2601 40.7458 95.2477 40.7502 95.2379L40.7553 95.2264C40.7565 95.2235 40.7571 95.2222 40.757 95.2223L40.7632 95.2068L40.7705 95.1917C42.285 92.0314 43.1761 88.1586 43.2716 83.8869L43.2719 83.8731L43.2721 83.8731C43.3035 83.2435 43.3036 82.6132 43.272 81.9496L43.2717 81.9431C43.1126 77.3196 42.0301 73.0256 40.3213 69.5709L40.321 69.5703C39.0864 67.0657 37.5435 65.022 35.8283 63.554L35.8216 63.5482L35.8216 63.5481C34.7455 62.5935 33.5865 61.8901 32.4073 61.46C32.0673 61.3981 31.7237 61.3353 31.4091 61.2723C30.7359 61.1439 30.0849 61.0136 29.4312 60.8505C28.7711 60.7319 28.1056 60.5785 27.4665 60.4312C27.2233 60.3751 26.9839 60.3199 26.7501 60.2679C26.7495 60.2677 26.7488 60.2676 26.7482 60.2674L26.8568 59.7794C21.8857 58.7125 17.5602 57.5486 13.9126 56.3523L44.9261 120.491ZM44.9261 120.491L44.9284 120.502C45.3093 122.314 45.532 124.192 45.5958 126.168C45.6279 127.519 45.6274 128.792 45.5325 130.028L45.5321 130.033C45.4373 131.459 45.2155 132.856 44.9293 134.162L44.9292 134.162L44.9277 134.17C44.102 138.241 42.4869 141.684 40.3879 144.163L40.3877 144.163L40.3795 144.173C39.1012 145.765 37.5848 146.938 35.9615 147.613L35.9614 147.613L35.9486 147.618C35.0903 148.004 34.169 148.217 33.2405 148.283C32.6768 148.189 32.1322 148.096 31.6198 147.976L31.6116 147.974L31.6033 147.972C29.9912 147.649 28.449 147.327 26.9733 146.974L26.9654 146.972L26.9574 146.97C26.1387 146.802 25.3533 146.622 24.5796 146.444C24.1697 146.349 23.763 146.256 23.3564 146.165L22.7819 146.021L22.2009 145.876L22.1996 145.876C19.2067 145.134 16.4762 144.362 14.071 143.559L14.0642 143.557L14.0573 143.554C12.3676 143.044 10.8665 142.468 9.48204 141.92C7.8311 141.252 6.40268 140.553 5.1967 139.886C5.12912 139.843 5.06527 139.811 5.02355 139.79L5.01747 139.787C4.96589 139.761 4.94465 139.75 4.92596 139.738L4.91714 139.732L4.90809 139.726C4.00354 139.176 3.23351 138.68 2.62664 138.133L2.61918 138.126L2.61145 138.12C1.14659 136.903 0.5 135.737 0.5 134.657V49.6941C1.33923 50.824 2.6763 51.8821 4.39483 52.8714C5.71403 53.6637 7.28679 54.4174 9.10639 55.1659L9.10637 55.1659L9.11253 55.1684C10.5103 55.7218 12.0374 56.275 13.7583 56.8279L44.9261 120.491ZM36.1534 63.1741C37.9288 64.6936 39.5105 66.7951 40.7694 69.3493C42.5126 72.8733 43.6101 77.2379 43.7715 81.9259L36.1534 63.1741ZM36.1534 63.1741C35.0236 62.1718 33.797 61.4283 32.5381 60.9756L36.1534 63.1741ZM14.0657 76.8266L13.9126 77.3026H13.4126V89.7176V90.0791L13.756 90.1924C16.515 91.1027 19.6273 91.9792 23.1243 92.8224L23.1937 92.8392L23.2649 92.8358C24.518 92.777 25.5517 91.9653 26.2512 90.8137C26.9526 89.659 27.3568 88.1105 27.3568 86.4198V86.0642V86.0559L27.3565 86.0476C27.3058 84.5223 26.9251 83.1124 26.3168 81.9802C25.7128 80.8562 24.8646 79.972 23.8572 79.5584C23.5205 79.4095 23.189 79.3355 22.8432 79.2983C19.5753 78.4953 16.6601 77.6607 14.0657 76.8266ZM24.5495 126.512L24.6049 126.525L26.8568 124.958L27.2261 125.295C27.2264 125.295 27.2267 125.294 27.227 125.294C28.3685 124.043 29.0387 121.997 28.9382 119.733C28.8703 117.742 28.2316 115.928 27.2587 114.67C26.8152 114.045 26.2316 113.611 25.6604 113.325L25.6049 113.297L25.5444 113.283C21.1697 112.317 17.3439 111.254 14.0668 110.192L13.4126 109.98V110.668V123.083V123.447L13.7588 123.559C16.872 124.565 20.4689 125.571 24.5495 126.512Z" stroke="#FFF200"/>
<path d="M81.1393 109.19C81.5045 115.411 80.2304 121.114 77.9014 125.303C75.569 129.499 72.2218 132.112 68.4476 132.334C64.6734 132.557 61.0434 130.354 58.2362 126.461C55.4331 122.575 53.5004 117.06 53.1352 110.839C52.7699 104.618 54.0441 98.915 56.3731 94.7261C58.7055 90.5309 62.0527 87.9172 65.8269 87.6949C69.6011 87.4727 73.2311 89.6755 76.0383 93.5679C78.8414 97.4546 80.7741 102.969 81.1393 109.19Z" stroke="#FFF200"/>
</svg>
